<svg version="1.1" id="Layer_1" xmlns="http://www.w3.org/2000/svg" xmlns:xlink="http://www.w3.org/1999/xlink" x="0px" y="0px"
	 width="100%" viewBox="0 0 59 56" enable-background="new 0 0 59 56" xml:space="preserve">
<path fill="#6A5DCD" opacity="1.000000" stroke="none" 
	d="
M45.011639,57.000000 
	C30.009533,57.000000 15.509833,57.000000 1.007600,57.000000 
	C1.005067,38.337101 1.005067,19.674198 1.002532,1.008472 
	C20.662493,1.005648 40.324986,1.005648 59.990608,1.002823 
	C59.993740,19.662106 59.993740,38.324211 59.993740,57.000000 
	C55.171352,57.000000 50.342701,57.000000 45.011639,57.000000 
M25.444969,15.106408 
	C25.806101,14.886783 26.167231,14.667156 26.528362,14.447529 
	C26.312630,14.277645 25.944324,13.931482 25.905052,13.965474 
	C25.558411,14.265497 25.270229,14.633061 24.806244,15.157081 
	C24.884247,15.119242 24.962250,15.081403 25.444969,15.106408 
M19.195332,39.429089 
	C19.689003,39.731541 20.182673,40.033989 20.676342,40.336441 
	C20.789415,40.094105 20.902489,39.851772 21.015562,39.609436 
	C20.331078,39.399860 19.646595,39.190281 19.056730,38.177666 
	C17.123779,32.301514 15.519838,26.413301 19.056787,20.336655 
	C13.863590,25.840225 14.066617,32.396206 19.195332,39.429089 
M40.834538,16.577610 
	C39.394234,15.684993 37.953934,14.792376 36.513630,13.899758 
	C36.334198,14.358724 36.154766,14.817690 35.975330,15.276655 
	C37.704010,15.892900 39.432686,16.509144 41.302620,17.789587 
	C45.114250,22.720741 47.165009,28.156542 45.489975,34.660118 
	C49.350845,27.586679 47.425705,20.844225 40.834538,16.577610 
M33.024998,29.490555 
	C32.738022,27.603666 32.451050,25.716780 32.164074,23.829891 
	C31.741161,23.900558 31.318251,23.971226 30.895338,24.041893 
	C30.895338,27.666212 30.895338,31.290533 30.895338,34.914852 
	C31.424746,34.942764 31.954151,34.970676 32.483559,34.998589 
	C32.663502,33.446136 32.843445,31.893682 33.024998,29.490555 
M35.997242,44.550064 
	C37.870308,43.569046 39.743378,42.588028 41.616447,41.607014 
	C41.462757,41.430653 41.309067,41.254292 41.155380,41.077930 
	C36.483780,42.058872 31.812183,43.039814 27.140585,44.020756 
	C27.163492,44.283501 27.186398,44.546246 27.209303,44.808990 
	C29.903973,44.808990 32.598644,44.808990 35.997242,44.550064 
M31.921240,14.268288 
	C31.865726,13.757208 31.810215,13.246129 31.754704,12.735049 
	C31.465307,12.811126 31.175911,12.887201 30.886515,12.963278 
	C31.087982,13.435244 31.289452,13.907210 31.921240,14.268288 
M44.116577,36.807426 
	C44.012806,36.863609 43.909035,36.919788 43.805264,36.975971 
	C43.881298,37.061970 43.957336,37.147972 44.033371,37.233971 
	C44.100101,37.135994 44.166832,37.038017 44.116577,36.807426 
M24.292486,42.713486 
	C24.199131,42.511757 24.105778,42.310028 24.012423,42.108299 
	C23.903194,42.192135 23.793966,42.275974 23.684740,42.359810 
	C23.822912,42.529160 23.961084,42.698509 24.292486,42.713486 
M24.634802,29.236259 
	C24.739279,29.161179 24.843758,29.086096 24.948235,29.011013 
	C24.842491,29.031647 24.736748,29.052280 24.634802,29.236259 
z"/>
<path fill="#DCD9F3" opacity="1.000000" stroke="none" 
	d="
M41.141148,17.161802 
	C47.425705,20.844225 49.350845,27.586679 45.489975,34.660118 
	C47.165009,28.156542 45.114250,22.720741 41.170609,17.432880 
	C41.038601,17.076174 41.141148,17.161802 41.141148,17.161802 
z"/>
<path fill="#E7E5F7" opacity="1.000000" stroke="none" 
	d="
M18.979750,38.963100 
	C14.066617,32.396206 13.863590,25.840225 19.056787,20.336655 
	C15.519838,26.413301 17.123779,32.301514 19.029161,38.589989 
	C19.001593,39.002316 18.979750,38.963100 18.979750,38.963100 
z"/>
<path fill="#6E62CF" opacity="1.000000" stroke="none" 
	d="
M33.024193,29.915892 
	C32.843445,31.893682 32.663502,33.446136 32.483559,34.998589 
	C31.954151,34.970676 31.424746,34.942764 30.895338,34.914852 
	C30.895338,31.290533 30.895338,27.666212 30.895338,24.041893 
	C31.318251,23.971226 31.741161,23.900558 32.164074,23.829891 
	C32.451050,25.716780 32.738022,27.603666 33.024193,29.915892 
z"/>
<path fill="#DCD9F3" opacity="1.000000" stroke="none" 
	d="
M35.645279,44.679527 
	C32.598644,44.808990 29.903973,44.808990 27.209303,44.808990 
	C27.186398,44.546246 27.163492,44.283501 27.140585,44.020756 
	C31.812183,43.039814 36.483780,42.058872 41.155380,41.077930 
	C41.309067,41.254292 41.462757,41.430653 41.616447,41.607014 
	C39.743378,42.588028 37.870308,43.569046 35.645279,44.679527 
z"/>
<path fill="#6E62CF" opacity="1.000000" stroke="none" 
	d="
M41.099983,17.100780 
	C39.432686,16.509144 37.704010,15.892900 35.975330,15.276655 
	C36.154766,14.817690 36.334198,14.358724 36.513630,13.899758 
	C37.953934,14.792376 39.394234,15.684993 40.987843,16.869705 
	C41.141148,17.161802 41.038601,17.076174 41.099983,17.100780 
z"/>
<path fill="#6E62CF" opacity="1.000000" stroke="none" 
	d="
M31.706079,14.323732 
	C31.289452,13.907210 31.087982,13.435244 30.886515,12.963278 
	C31.175911,12.887201 31.465307,12.811126 31.754704,12.735049 
	C31.810215,13.246129 31.865726,13.757208 31.706079,14.323732 
z"/>
<path fill="#6E62CF" opacity="1.000000" stroke="none" 
	d="
M18.981853,38.991508 
	C19.646595,39.190281 20.331078,39.399860 21.015562,39.609436 
	C20.902489,39.851772 20.789415,40.094105 20.676342,40.336441 
	C20.182673,40.033989 19.689003,39.731541 19.087540,39.196095 
	C18.979750,38.963100 19.001593,39.002316 18.981853,38.991508 
z"/>
<path fill="#6E62CF" opacity="1.000000" stroke="none" 
	d="
M24.964764,14.980654 
	C25.270229,14.633061 25.558411,14.265497 25.905052,13.965474 
	C25.944324,13.931482 26.312630,14.277645 26.528362,14.447529 
	C26.167231,14.667156 25.806101,14.886783 25.224434,15.058415 
	C25.003901,15.010423 24.964764,14.980655 24.964764,14.980654 
z"/>
<path fill="#6E62CF" opacity="1.000000" stroke="none" 
	d="
M44.175072,36.873734 
	C44.166832,37.038017 44.100101,37.135994 44.033371,37.233971 
	C43.957336,37.147972 43.881298,37.061970 43.805264,36.975967 
	C43.909035,36.919788 44.012806,36.863609 44.175072,36.873734 
z"/>
<path fill="#6E62CF" opacity="1.000000" stroke="none" 
	d="
M24.195871,42.790672 
	C23.961084,42.698509 23.822912,42.529160 23.684738,42.359810 
	C23.793966,42.275974 23.903194,42.192135 24.012424,42.108299 
	C24.105778,42.310028 24.199131,42.511757 24.195871,42.790672 
z"/>
<path fill="#6E62CF" opacity="1.000000" stroke="none" 
	d="
M24.632904,29.154587 
	C24.736748,29.052280 24.842491,29.031647 24.948235,29.011013 
	C24.843758,29.086096 24.739279,29.161179 24.632904,29.154587 
z"/>
<path fill="#6E62CF" opacity="1.000000" stroke="none" 
	d="
M25.022076,15.026993 
	C24.962250,15.081403 24.884247,15.119242 24.885504,15.068868 
	C24.964764,14.980655 25.003901,15.010423 25.022076,15.026993 
z"/>
</svg>