<svg version="1.1" id="Layer_1" xmlns="http://www.w3.org/2000/svg" xmlns:xlink="http://www.w3.org/1999/xlink" x="0px" y="0px"
	 width="100%" viewBox="0 0 135 139" enable-background="new 0 0 135 139" xml:space="preserve">
<path fill="#FFFFFF" opacity="1.000000" stroke="none" 
	d="
M74.000000,140.000000 
	C49.333332,140.000000 25.166666,140.000000 1.000000,140.000000 
	C1.000000,93.666664 1.000000,47.333332 1.000000,1.000000 
	C46.000000,1.000000 91.000000,1.000000 136.000000,1.000000 
	C136.000000,47.333332 136.000000,93.666664 136.000000,140.000000 
	C115.500000,140.000000 95.000000,140.000000 74.000000,140.000000 
M121.999313,47.121128 
	C121.328949,43.484818 124.163063,38.462330 117.832245,36.215046 
	C117.162712,22.235407 106.337280,24.748446 97.078979,24.126030 
	C97.078979,19.722252 97.078979,15.644528 97.078979,11.702760 
	C90.725563,10.340507 90.297379,10.632906 90.233353,15.999208 
	C90.202240,18.606096 90.227966,21.213661 90.227966,23.922283 
	C76.379036,23.922283 63.192554,23.922283 49.641670,23.922283 
	C49.641670,21.168007 49.659306,18.854809 49.638222,16.541962 
	C49.584229,10.618439 49.364170,10.447061 42.835472,11.504336 
	C42.626743,15.596589 42.412514,19.796728 42.180321,24.349049 
	C39.617088,24.349049 37.641880,24.339344 35.666794,24.350685 
	C25.698408,24.407925 22.061798,27.985666 22.055210,37.829792 
	C22.039721,60.971836 22.032064,84.113922 22.059235,107.255943 
	C22.070087,116.499725 25.537903,119.998909 34.671608,120.007866 
	C58.146618,120.030869 81.621819,120.054436 105.096481,119.960609 
	C107.703857,119.950188 110.308197,119.183372 113.419968,119.450104 
	C116.114754,119.628204 118.809547,119.806305 121.990891,120.016556 
	C121.990891,95.452469 121.990891,71.731995 121.999313,47.121128 
z"/>
<path fill="#767676" opacity="1.000000" stroke="none" 
	d="
M112.913948,118.767349 
	C110.308197,119.183372 107.703857,119.950188 105.096481,119.960609 
	C81.621819,120.054436 58.146618,120.030869 34.671608,120.007866 
	C25.537903,119.998909 22.070087,116.499725 22.059235,107.255943 
	C22.032064,84.113922 22.039721,60.971836 22.055210,37.829792 
	C22.061798,27.985666 25.698408,24.407925 35.666794,24.350685 
	C37.641880,24.339344 39.617088,24.349049 42.180321,24.349049 
	C42.412514,19.796728 42.626743,15.596589 42.835472,11.504336 
	C49.364170,10.447061 49.584229,10.618439 49.638222,16.541962 
	C49.659306,18.854809 49.641670,21.168007 49.641670,23.922283 
	C63.192554,23.922283 76.379036,23.922283 90.227966,23.922283 
	C90.227966,21.213661 90.202240,18.606096 90.233353,15.999208 
	C90.297379,10.632906 90.725563,10.340507 97.078979,11.702760 
	C97.078979,15.644528 97.078979,19.722252 97.078979,24.126030 
	C106.337280,24.748446 117.162712,22.235407 117.825790,37.054916 
	C117.879158,40.929909 117.938972,43.965027 117.911331,47.462208 
	C117.816093,67.393135 117.716072,86.862701 117.864296,106.330376 
	C117.902145,111.301010 116.748947,115.488701 112.913948,118.767349 
M102.785812,113.012291 
	C103.855324,112.963158 104.924828,112.914024 106.781029,113.002907 
	C108.123871,111.537506 110.573013,110.111198 110.626404,108.600227 
	C110.927368,100.082390 110.652672,91.544220 110.770798,82.144119 
	C110.713631,79.774834 110.656464,77.405548 110.802208,74.113190 
	C110.802208,66.877350 110.802208,59.641514 110.802208,52.063488 
	C106.514801,52.063488 102.753258,52.063488 98.061844,51.944191 
	C79.709732,51.985195 61.357616,52.026199 42.081841,51.918755 
	C37.835903,51.918755 33.589970,51.918755 29.171839,51.918755 
	C29.171839,61.439880 29.171839,70.228386 29.059822,79.945847 
	C29.046598,89.277618 29.094084,98.610077 28.989286,107.940826 
	C28.949219,111.508461 30.399328,113.125610 34.030102,113.080925 
	C45.023426,112.945618 56.018250,112.931877 67.862267,112.999779 
	C69.577553,112.954910 71.292831,112.910049 73.857216,113.002487 
	C75.573837,112.957848 77.290459,112.913208 79.933617,113.007706 
	C85.953407,112.961472 91.973198,112.915237 98.784821,113.016083 
	C99.854340,112.966927 100.923866,112.917763 102.785812,113.012291 
M29.029318,41.843716 
	C28.439514,45.840252 31.334753,44.972889 33.491734,44.974686 
	C57.896168,44.995041 82.300629,44.992916 106.705078,44.974300 
	C107.984688,44.973324 109.264153,44.769821 110.864471,44.633224 
	C110.773346,42.879314 110.697517,41.419983 110.775124,39.115284 
	C110.905685,31.803581 110.351326,31.234032 102.997742,31.279085 
	C102.013100,31.285118 101.029465,31.455631 99.149834,31.292791 
	C94.462196,31.427597 89.774559,31.562405 84.145370,31.565813 
	C74.112122,31.557085 64.078873,31.548355 53.153309,31.288025 
	C48.789165,31.420935 44.425018,31.553846 39.145493,31.556658 
	C38.330456,31.541117 37.515484,31.517427 36.700375,31.511305 
	C29.106718,31.454269 28.890795,31.664047 29.024805,39.032204 
	C29.036633,39.682549 29.113735,40.331707 29.029318,41.843716 
z"/>
<path fill="#ECECEC" opacity="1.000000" stroke="none" 
	d="
M113.166962,119.108727 
	C116.748947,115.488701 117.902145,111.301010 117.864296,106.330376 
	C117.716072,86.862701 117.816093,67.393135 118.256416,47.493553 
	C119.789604,47.379059 120.890244,47.695290 121.990891,48.011517 
	C121.990891,71.731995 121.990891,95.452469 121.990891,120.016556 
	C118.809547,119.806305 116.114754,119.628204 113.166962,119.108727 
z"/>
<path fill="#F8F8F8" opacity="1.000000" stroke="none" 
	d="
M121.995102,47.566322 
	C120.890244,47.695290 119.789604,47.379059 118.343872,47.031487 
	C117.938972,43.965027 117.879158,40.929909 117.907684,37.447498 
	C124.163063,38.462330 121.328949,43.484818 121.995102,47.566322 
z"/>
<path fill="#E8E8E8" opacity="1.000000" stroke="none" 
	d="
M110.599289,75.036263 
	C110.656464,77.405548 110.713631,79.774834 110.341797,82.566551 
	C108.012497,81.229927 105.983498,79.589119 104.237152,77.688606 
	C99.832451,72.895065 94.755249,70.191017 87.963448,70.934853 
	C82.052200,71.582253 76.079903,71.672249 70.063004,71.603897 
	C68.927299,69.250107 67.911179,65.650002 66.791351,65.617455 
	C59.012356,65.391350 51.211823,65.906166 43.081299,65.961464 
	C40.097168,61.129917 40.962467,56.587315 43.005505,52.067200 
	C61.357616,52.026199 79.709732,51.985195 98.531845,52.415916 
	C99.012810,56.290958 98.738304,59.728344 99.138840,63.085186 
	C99.390327,65.192902 100.122276,67.766258 101.581955,69.092506 
	C104.214569,71.484467 107.554680,73.097755 110.599289,75.036263 
z"/>
<path fill="#E4E4E4" opacity="1.000000" stroke="none" 
	d="
M40.060875,31.686758 
	C44.425018,31.553846 48.789165,31.420935 53.606995,31.740108 
	C59.217232,38.726234 71.958290,41.597919 78.716652,37.448647 
	C81.113609,35.977039 82.978905,33.639458 85.086922,31.697208 
	C89.774559,31.562405 94.462196,31.427597 99.601608,31.749054 
	C103.576149,34.790424 107.098923,37.375538 110.621696,39.960648 
	C110.697517,41.419983 110.773346,42.879314 110.864471,44.633224 
	C109.264153,44.769821 107.984688,44.973324 106.705078,44.974300 
	C82.300629,44.992916 57.896168,44.995041 33.491734,44.974686 
	C31.334753,44.972889 28.439514,45.840252 29.432369,41.377319 
	C33.243904,37.836201 36.652390,34.761478 40.060875,31.686758 
z"/>
<path fill="#EAEAEA" opacity="1.000000" stroke="none" 
	d="
M67.012489,112.870758 
	C56.018250,112.931877 45.023426,112.945618 34.030102,113.080925 
	C30.399328,113.125610 28.949219,111.508461 28.989286,107.940826 
	C29.094084,98.610077 29.046598,89.277618 29.450016,79.431908 
	C34.003960,76.263878 38.167709,73.609787 42.371628,71.379868 
	C42.740795,78.479515 43.069798,85.154999 43.070778,92.011032 
	C39.336487,97.662933 40.201794,100.956863 46.395557,106.918114 
	C50.684242,111.045807 55.667301,111.749947 61.007549,109.803535 
	C65.461784,108.180069 68.652725,105.095268 69.084084,100.089493 
	C69.317230,97.383835 69.017677,94.632271 69.068573,91.605515 
	C69.497482,90.536209 69.816269,89.762810 70.496841,89.074448 
	C74.463638,95.019661 73.764343,100.896637 70.789345,106.700096 
	C69.692368,108.840019 68.280647,110.818596 67.012489,112.870758 
z"/>
<path fill="#FEFEFE" opacity="1.000000" stroke="none" 
	d="
M97.992989,112.869003 
	C91.973198,112.915237 85.953407,112.961472 79.477425,112.544113 
	C80.539276,104.855469 82.949280,97.805283 81.210236,90.126785 
	C80.758156,88.130661 82.319061,84.016571 83.769386,83.580109 
	C87.347656,82.503250 92.219292,81.614250 95.010376,83.274048 
	C97.437912,84.717651 98.597984,89.710236 98.775833,93.212822 
	C99.106995,99.734818 98.316566,106.313759 97.992989,112.869003 
z"/>
<path fill="#F3F3F3" opacity="1.000000" stroke="none" 
	d="
M67.437378,112.935272 
	C68.280647,110.818596 69.692368,108.840019 70.789345,106.700096 
	C73.764343,100.896637 74.463638,95.019661 70.432358,88.628975 
	C70.048508,85.400650 70.090919,82.702827 70.477608,79.959946 
	C76.392982,74.508484 83.361465,74.834480 90.377205,74.960426 
	C99.982124,75.132851 105.921127,80.840195 105.988655,90.418159 
	C106.041405,97.900047 105.996078,105.382622 105.994339,112.864891 
	C104.924828,112.914024 103.855324,112.963158 102.391922,112.481110 
	C102.020348,104.818375 102.205658,97.681648 101.979301,90.557999 
	C101.896652,87.956764 101.494263,84.938568 100.097961,82.885925 
	C95.832237,76.615044 81.569992,76.194000 76.633392,82.024063 
	C75.778641,83.033516 75.622520,84.929840 75.704987,86.384697 
	C76.006920,91.710999 77.144119,97.064339 76.787949,102.327728 
	C76.545609,105.909073 74.337311,109.357384 73.008118,112.865181 
	C71.292831,112.910049 69.577553,112.954910 67.437378,112.935272 
z"/>
<path fill="#F8F8F8" opacity="1.000000" stroke="none" 
	d="
M73.432663,112.933838 
	C74.337311,109.357384 76.545609,105.909073 76.787949,102.327728 
	C77.144119,97.064339 76.006920,91.710999 75.704987,86.384697 
	C75.622520,84.929840 75.778641,83.033516 76.633392,82.024063 
	C81.569992,76.194000 95.832237,76.615044 100.097961,82.885925 
	C101.494263,84.938568 101.896652,87.956764 101.979301,90.557999 
	C102.205658,97.681648 102.020348,104.818375 101.995712,112.409264 
	C100.923866,112.917763 99.854340,112.966927 98.388901,112.942543 
	C98.316566,106.313759 99.106995,99.734818 98.775833,93.212822 
	C98.597984,89.710236 97.437912,84.717651 95.010376,83.274048 
	C92.219292,81.614250 87.347656,82.503250 83.769386,83.580109 
	C82.319061,84.016571 80.758156,88.130661 81.210236,90.126785 
	C82.949280,97.805283 80.539276,104.855469 79.014160,112.474548 
	C77.290459,112.913208 75.573837,112.957848 73.432663,112.933838 
z"/>
<path fill="#EFEFEF" opacity="1.000000" stroke="none" 
	d="
M106.387680,112.933899 
	C105.996078,105.382622 106.041405,97.900047 105.988655,90.418159 
	C105.921127,80.840195 99.982124,75.132851 90.377205,74.960426 
	C83.361465,74.834480 76.392982,74.508484 70.405487,79.520309 
	C70.037582,76.753349 70.086082,74.380951 70.134583,72.008553 
	C76.079903,71.672249 82.052200,71.582253 87.963448,70.934853 
	C94.755249,70.191017 99.832451,72.895065 104.237152,77.688606 
	C105.983498,79.589119 108.012497,81.229927 110.243515,83.000977 
	C110.652672,91.544220 110.927368,100.082390 110.626404,108.600227 
	C110.573013,110.111198 108.123871,111.537506 106.387680,112.933899 
z"/>
<path fill="#E0E0E0" opacity="1.000000" stroke="none" 
	d="
M42.331459,70.955696 
	C38.167709,73.609787 34.003960,76.263878 29.506025,78.967430 
	C29.171839,70.228386 29.171839,61.439880 29.171839,51.918755 
	C33.589970,51.918755 37.835903,51.918755 42.543671,51.992977 
	C40.962467,56.587315 40.097168,61.129917 42.965324,66.295509 
	C42.901314,68.219513 42.616386,69.587601 42.331459,70.955696 
z"/>
<path fill="#DEDEDE" opacity="1.000000" stroke="none" 
	d="
M110.700745,74.574722 
	C107.554680,73.097755 104.214569,71.484467 101.581955,69.092506 
	C100.122276,67.766258 99.390327,65.192902 99.138840,63.085186 
	C98.738304,59.728344 99.012810,56.290958 98.996780,52.475563 
	C102.753258,52.063488 106.514801,52.063488 110.802208,52.063488 
	C110.802208,59.641514 110.802208,66.877350 110.700745,74.574722 
z"/>
<path fill="#F3F3F3" opacity="1.000000" stroke="none" 
	d="
M84.616150,31.631510 
	C82.978905,33.639458 81.113609,35.977039 78.716652,37.448647 
	C71.958290,41.597919 59.217232,38.726234 54.053154,31.865910 
	C64.078873,31.548355 74.112122,31.557085 84.616150,31.631510 
z"/>
<path fill="#F3F3F3" opacity="1.000000" stroke="none" 
	d="
M110.698410,39.537964 
	C107.098923,37.375538 103.576149,34.790424 100.049370,31.877647 
	C101.029465,31.455631 102.013100,31.285118 102.997742,31.279085 
	C110.351326,31.234032 110.905685,31.803581 110.698410,39.537964 
z"/>
<path fill="#EFEFEF" opacity="1.000000" stroke="none" 
	d="
M39.603184,31.621708 
	C36.652390,34.761478 33.243904,37.836201 29.497971,40.946167 
	C29.113735,40.331707 29.036633,39.682549 29.024805,39.032204 
	C28.890795,31.664047 29.106718,31.454269 36.700375,31.511305 
	C37.515484,31.517427 38.330456,31.541117 39.603184,31.621708 
z"/>
<path fill="#767676" opacity="1.000000" stroke="none" 
	d="
M42.371628,71.379868 
	C42.616386,69.587601 42.901314,68.219513 43.302219,66.517372 
	C51.211823,65.906166 59.012356,65.391350 66.791351,65.617455 
	C67.911179,65.650002 68.927299,69.250107 70.063004,71.603897 
	C70.086082,74.380951 70.037582,76.753349 70.061211,79.565384 
	C70.090919,82.702827 70.048508,85.400650 70.070572,88.543930 
	C69.816269,89.762810 69.497482,90.536209 68.724350,91.726753 
	C66.846451,92.426231 65.422890,92.708572 63.536705,92.920967 
	C58.049511,92.898132 53.024940,92.945244 47.656479,92.926750 
	C46.007992,92.517586 44.703396,92.174034 43.398804,91.830475 
	C43.069798,85.154999 42.740795,78.479515 42.371628,71.379868 
M63.064663,75.701927 
	C63.304230,73.351395 62.690899,71.890770 59.877628,72.092606 
	C57.410725,72.269592 54.888512,71.897980 52.456440,72.238281 
	C51.348362,72.393326 49.592800,73.608803 49.516785,74.466164 
	C49.189785,78.154274 49.377121,81.887985 49.377121,85.663651 
	C54.342621,85.663651 58.414280,85.663651 63.065521,85.663651 
	C63.065521,82.495674 63.065521,79.568245 63.064663,75.701927 
z"/>
<path fill="#E3E3E3" opacity="1.000000" stroke="none" 
	d="
M43.070778,92.011032 
	C44.703396,92.174034 46.007992,92.517586 47.656273,93.362045 
	C48.005344,95.524437 47.841675,97.207245 48.048012,98.843391 
	C48.650867,103.623703 54.970531,107.472771 58.788265,105.481499 
	C63.494350,103.026878 65.427452,98.393372 63.999332,92.990913 
	C65.422890,92.708572 66.846451,92.426231 68.614227,92.022659 
	C69.017677,94.632271 69.317230,97.383835 69.084084,100.089493 
	C68.652725,105.095268 65.461784,108.180069 61.007549,109.803535 
	C55.667301,111.749947 50.684242,111.045807 46.395557,106.918114 
	C40.201794,100.956863 39.336487,97.662933 43.070778,92.011032 
z"/>
<path fill="#E3E3E3" opacity="1.000000" stroke="none" 
	d="
M63.065094,76.171371 
	C63.065521,79.568245 63.065521,82.495674 63.065521,85.663651 
	C58.414280,85.663651 54.342621,85.663651 49.377121,85.663651 
	C49.377121,81.887985 49.189785,78.154274 49.516785,74.466164 
	C49.592800,73.608803 51.348362,72.393326 52.456440,72.238281 
	C54.888512,71.897980 57.410725,72.269592 59.877628,72.092606 
	C62.690899,71.890770 63.304230,73.351395 63.065094,76.171371 
z"/>
<path fill="#E0E0E0" opacity="1.000000" stroke="none" 
	d="
M63.536705,92.920967 
	C65.427452,98.393372 63.494350,103.026878 58.788265,105.481499 
	C54.970531,107.472771 48.650867,103.623703 48.048012,98.843391 
	C47.841675,97.207245 48.005344,95.524437 48.000168,93.427658 
	C53.024940,92.945244 58.049511,92.898132 63.536705,92.920967 
z"/>
</svg>