<svg version="1.1" id="Layer_1" xmlns="http://www.w3.org/2000/svg" xmlns:xlink="http://www.w3.org/1999/xlink" x="0px" y="0px"
	 width="100%" viewBox="0 0 138 148" enable-background="new 0 0 138 148" xml:space="preserve">
<path fill="#FFFFFF" opacity="1.000000" stroke="none" 
	d="
M80.000000,149.000000 
	C53.356220,149.000000 27.212442,149.000000 1.034332,149.000000 
	C1.034332,99.732727 1.034332,50.465424 1.034332,1.099060 
	C46.893532,1.099060 92.787354,1.099060 138.840576,1.099060 
	C138.840576,50.332920 138.840576,99.666412 138.840576,149.000000 
	C119.465813,149.000000 99.982903,149.000000 80.000000,149.000000 
M52.500160,129.771057 
	C70.983955,129.771027 89.467819,129.801483 107.951500,129.756027 
	C115.382858,129.737747 119.691330,125.813133 119.727386,118.543655 
	C119.848793,94.065720 119.853058,69.586365 119.719551,45.108559 
	C119.682800,38.372177 115.365837,34.356098 108.659058,34.140148 
	C105.570312,34.040691 102.475708,34.123199 99.088638,34.123199 
	C99.088638,30.406830 99.445084,27.368811 98.938385,24.482313 
	C98.684708,23.037214 96.856804,21.868464 95.740883,20.574730 
	C94.570244,21.842558 92.634148,22.978151 92.387550,24.405611 
	C91.866615,27.421120 92.228951,30.589220 92.228951,33.738819 
	C78.362434,33.738819 65.149414,33.738819 51.633160,33.738819 
	C51.633160,30.371159 52.011410,27.312727 51.473854,24.424757 
	C51.204399,22.977119 49.266460,21.840044 48.083111,20.562515 
	C46.900242,21.829037 44.945301,22.960245 44.694691,24.390152 
	C44.167496,27.398241 44.534508,30.563049 44.534508,34.122498 
	C41.049351,34.122498 38.246754,34.058819 35.447960,34.134991 
	C28.355083,34.328030 24.127964,38.286488 24.097870,45.295139 
	C23.992762,69.773201 23.990381,94.252205 24.086315,118.730316 
	C24.113781,125.737999 28.344978,129.652237 35.514549,129.755478 
	C40.842110,129.832199 46.171658,129.770706 52.500160,129.771057 
z"/>
<path fill="#787878" opacity="1.000000" stroke="none" 
	d="
M52.000240,129.770935 
	C46.171658,129.770706 40.842110,129.832199 35.514549,129.755478 
	C28.344978,129.652237 24.113781,125.737999 24.086315,118.730316 
	C23.990381,94.252205 23.992762,69.773201 24.097870,45.295139 
	C24.127964,38.286488 28.355083,34.328030 35.447960,34.134991 
	C38.246754,34.058819 41.049351,34.122498 44.534508,34.122498 
	C44.534508,30.563049 44.167496,27.398241 44.694691,24.390152 
	C44.945301,22.960245 46.900242,21.829037 48.083111,20.562515 
	C49.266460,21.840044 51.204399,22.977119 51.473854,24.424757 
	C52.011410,27.312727 51.633160,30.371159 51.633160,33.738819 
	C65.149414,33.738819 78.362434,33.738819 92.228951,33.738819 
	C92.228951,30.589220 91.866615,27.421120 92.387550,24.405611 
	C92.634148,22.978151 94.570244,21.842558 95.740883,20.574730 
	C96.856804,21.868464 98.684708,23.037214 98.938385,24.482313 
	C99.445084,27.368811 99.088638,30.406830 99.088638,34.123199 
	C102.475708,34.123199 105.570312,34.040691 108.659058,34.140148 
	C115.365837,34.356098 119.682800,38.372177 119.719551,45.108559 
	C119.853058,69.586365 119.848793,94.065720 119.727386,118.543655 
	C119.691330,125.813133 115.382858,129.737747 107.951500,129.756027 
	C89.467819,129.801483 70.983955,129.771027 52.000240,129.770935 
M85.499992,122.911797 
	C92.490334,122.911728 99.487991,122.716873 106.468498,122.978828 
	C111.268890,123.158966 112.946693,121.254417 112.891365,116.529472 
	C112.712090,101.219429 112.824539,85.905975 112.824631,70.593834 
	C112.824646,67.807861 112.824638,65.021896 112.824638,62.053947 
	C85.281487,62.053947 58.305046,62.053947 31.023275,62.053947 
	C31.023275,81.084579 31.039896,99.704948 31.009729,118.325233 
	C31.003439,122.207680 33.292934,122.949455 36.566433,122.937561 
	C52.544109,122.879471 68.522110,122.911552 85.499992,122.911797 
M91.499313,41.071960 
	C75.187981,41.071957 58.876648,41.073162 42.565315,41.071556 
	C30.106424,41.070328 30.901974,39.769226 31.064062,53.121525 
	C31.069502,53.569687 31.364258,54.014343 31.546814,54.523872 
	C58.515923,54.523872 85.387299,54.523872 112.837685,54.523872 
	C112.837685,51.603119 112.754433,48.985268 112.857430,46.374767 
	C113.007568,42.569374 111.322891,40.915871 107.477493,41.034908 
	C102.489006,41.189339 97.492111,41.072227 91.499313,41.071960 
z"/>
<path fill="#FEFEFE" opacity="1.000000" stroke="none" 
	d="
M85.000000,122.911774 
	C68.522110,122.911552 52.544109,122.879471 36.566433,122.937561 
	C33.292934,122.949455 31.003439,122.207680 31.009729,118.325233 
	C31.039896,99.704948 31.023275,81.084579 31.023275,62.053947 
	C58.305046,62.053947 85.281487,62.053947 112.824638,62.053947 
	C112.824638,65.021896 112.824646,67.807861 112.824631,70.593834 
	C112.824539,85.905975 112.712090,101.219429 112.891365,116.529472 
	C112.946693,121.254417 111.268890,123.158966 106.468498,122.978828 
	C99.487991,122.716873 92.490334,122.911728 85.000000,122.911774 
M82.015297,94.515297 
	C86.010841,90.516846 89.949654,86.459320 94.025818,82.544823 
	C96.068138,80.583488 96.585121,78.950745 94.326950,76.714653 
	C92.049469,74.459442 90.342407,75.105911 88.453979,77.087822 
	C86.275604,79.374031 84.008736,81.576576 81.761337,83.796249 
	C76.135963,89.352219 70.499878,94.897331 64.367409,100.940170 
	C61.005768,97.334755 58.038059,94.200661 55.128757,91.013245 
	C53.381660,89.099129 51.750706,88.645073 49.659779,90.658821 
	C47.544926,92.695625 47.367996,94.497787 49.487827,96.585915 
	C53.514725,100.552620 57.552078,104.512482 61.459023,108.595810 
	C63.866379,111.111847 65.773331,110.854912 68.102875,108.403122 
	C72.452438,103.825310 77.031647,99.465698 82.015297,94.515297 
z"/>
<path fill="#FBFBFB" opacity="1.000000" stroke="none" 
	d="
M91.999077,41.071983 
	C97.492111,41.072227 102.489006,41.189339 107.477493,41.034908 
	C111.322891,40.915871 113.007568,42.569374 112.857430,46.374767 
	C112.754433,48.985268 112.837685,51.603119 112.837685,54.523872 
	C85.387299,54.523872 58.515923,54.523872 31.546814,54.523872 
	C31.364258,54.014343 31.069502,53.569687 31.064062,53.121525 
	C30.901974,39.769226 30.106424,41.070328 42.565315,41.071556 
	C58.876648,41.073162 75.187981,41.071957 91.999077,41.071983 
z"/>
<path fill="#787878" opacity="1.000000" stroke="none" 
	d="
M81.765305,94.765305 
	C77.031647,99.465698 72.452438,103.825310 68.102875,108.403122 
	C65.773331,110.854912 63.866379,111.111847 61.459023,108.595810 
	C57.552078,104.512482 53.514725,100.552620 49.487827,96.585915 
	C47.367996,94.497787 47.544926,92.695625 49.659779,90.658821 
	C51.750706,88.645073 53.381660,89.099129 55.128757,91.013245 
	C58.038059,94.200661 61.005768,97.334755 64.367409,100.940170 
	C70.499878,94.897331 76.135963,89.352219 81.761337,83.796249 
	C84.008736,81.576576 86.275604,79.374031 88.453979,77.087822 
	C90.342407,75.105911 92.049469,74.459442 94.326950,76.714653 
	C96.585121,78.950745 96.068138,80.583488 94.025818,82.544823 
	C89.949654,86.459320 86.010841,90.516846 81.765305,94.765305 
z"/>
</svg>