<?xml version="1.0" encoding="UTF-8"?>
<svg version="1.1" xmlns="http://www.w3.org/2000/svg" width="379" height="126">
<path d="M0 0 C125.07 0 250.14 0 379 0 C379 41.58 379 83.16 379 126 C253.93 126 128.86 126 0 126 C0 84.42 0 42.84 0 0 Z " fill="#1D1A31" transform="translate(0,0)"/>
<path d="M0 0 C0 8.58 0 17.16 0 26 C3.01125 25.13375 6.0225 24.2675 9.125 23.375 C17.13416049 21.08246966 25.15393816 18.83052694 33.1875 16.625 C34.6118335 16.23127197 34.6118335 16.23127197 36.06494141 15.82958984 C36.94456543 15.58934082 37.82418945 15.3490918 38.73046875 15.1015625 C39.50801514 14.88838379 40.28556152 14.67520508 41.08666992 14.45556641 C43 14 43 14 45 14 C45.07412765 19.21440513 45.12859104 24.42850393 45.16479492 29.64331055 C45.17988641 31.41745343 45.20036191 33.19155898 45.22631836 34.96557617 C45.26268641 37.51490487 45.27972238 40.06374059 45.29296875 42.61328125 C45.30845261 43.40712723 45.32393646 44.20097321 45.33988953 45.01887512 C45.34154805 50.43917322 45.34154805 50.43917322 43.84130859 52.90258789 C41.38124963 54.36877259 38.99875308 55.14502882 36.24609375 55.9453125 C35.08190918 56.2846582 33.91772461 56.62400391 32.71826172 56.97363281 C27.17071317 58.50494562 21.60819373 59.9669315 16.02874756 61.37750244 C12.62524098 62.23865352 9.22480859 63.11178963 5.82421875 63.984375 C4.81322113 64.24355209 4.81322113 64.24355209 3.78179932 64.50796509 C-2.0330103 66.00165729 -7.83345564 67.54370543 -13.625 69.125 C-14.48939697 69.36025391 -15.35379395 69.59550781 -16.24438477 69.83789062 C-20.75688181 71.07613039 -25.25080311 72.36379773 -29.734375 73.703125 C-30.67974121 73.98269043 -31.62510742 74.26225586 -32.59912109 74.55029297 C-34.38622518 75.08123735 -36.17067934 75.62122785 -37.95166016 76.17236328 C-43.16061235 77.71810503 -47.5653656 78.26236166 -53 78 C-53 76.35 -53 74.7 -53 73 C-51.21142578 72.49339844 -51.21142578 72.49339844 -49.38671875 71.9765625 C-47.82023382 71.52631533 -46.25383185 71.07577942 -44.6875 70.625 C-43.90181641 70.40328125 -43.11613281 70.1815625 -42.30664062 69.953125 C-41.54931641 69.73398438 -40.79199219 69.51484375 -40.01171875 69.2890625 C-39.31522217 69.09006348 -38.61872559 68.89106445 -37.90112305 68.68603516 C-35.7150302 67.98287804 -35.7150302 67.98287804 -33 66 C-32.58390728 63.67699616 -32.58390728 63.67699616 -32.70703125 60.9921875 C-32.71669922 60.00605469 -32.72636719 59.01992187 -32.73632812 58.00390625 C-32.76146484 56.97136719 -32.78660156 55.93882813 -32.8125 54.875 C-32.82603516 53.83472656 -32.83957031 52.79445312 -32.85351562 51.72265625 C-32.88894772 49.14792373 -32.93834779 46.5742167 -33 44 C-33.90878906 44.18175781 -33.90878906 44.18175781 -34.8359375 44.3671875 C-40.890625 45.578125 -46.9453125 46.7890625 -53 48 C-53.07417023 43.49767666 -53.1286105 38.99570909 -53.16479492 34.49291992 C-53.17987936 32.96128139 -53.20034978 31.42968602 -53.22631836 29.89819336 C-53.26271847 27.69634346 -53.27972913 25.49506467 -53.29296875 23.29296875 C-53.30845261 22.60849167 -53.32393646 21.92401459 -53.33988953 21.21879578 C-53.34082234 18.58232365 -53.29254661 16.51235452 -51.96801758 14.19262695 C-48.92183073 12.34662488 -45.63301387 11.5224402 -42.21875 10.625 C-41.45002563 10.41439941 -40.68130127 10.20379883 -39.88928223 9.98681641 C-37.42865471 9.3150458 -34.964519 8.65733358 -32.5 8 C-30.87214411 7.55821818 -29.24453685 7.11551909 -27.6171875 6.671875 C-24.48745733 5.82004658 -21.3559742 4.97525015 -18.22265625 4.13671875 C-13.82036091 2.95705734 -9.43211439 1.72889489 -5.04882812 0.48046875 C-3 0 -3 0 0 0 Z " fill="#675BCB" transform="translate(96,34)"/>
<path d="M0 0 C0 10.23 0 20.46 0 31 C-6.70020475 33.6800819 -12.76474084 35.88572124 -19.6875 37.5 C-21.43257986 37.9193755 -23.1773693 38.33996122 -24.921875 38.76171875 C-25.77587891 38.96716309 -26.62988281 39.17260742 -27.50976562 39.38427734 C-32.34708474 40.58032821 -37.1389123 41.9454132 -41.93359375 43.30078125 C-45 44 -45 44 -50 44 C-50 33.77 -50 23.54 -50 13 C-45.04246916 10.87534392 -40.91088834 9.31959714 -35.78125 8.02734375 C-35.11967896 7.85876358 -34.45810791 7.69018341 -33.77648926 7.51649475 C-31.68564194 6.9847951 -29.5929491 6.46085826 -27.5 5.9375 C-25.40749647 5.40893119 -23.31541138 4.87874308 -21.22351074 4.34779358 C-19.3261341 3.86705185 -17.42774416 3.39031456 -15.52929688 2.91381836 C-13.12538625 2.29138909 -10.73554587 1.6125361 -8.36132812 0.88500977 C-5 0 -5 0 0 0 Z " fill="#F9BE65" transform="translate(149,11)"/>
<path d="M0 0 C0 5.94 0 11.88 0 18 C-6.3176529 19.9700208 -12.63567564 21.93534271 -19 23.75 C-19.845625 23.99234375 -20.69125 24.2346875 -21.5625 24.484375 C-24.10971009 25.0232079 -26.40417788 25.09270793 -29 25 C-29.05380578 22.20807795 -29.09357669 19.4171859 -29.125 16.625 C-29.14175781 15.8309375 -29.15851562 15.036875 -29.17578125 14.21875 C-29.19335473 12.14507985 -29.10335168 10.07116759 -29 8 C-26.56738592 5.56738592 -24.98056506 5.31180463 -21.66015625 4.4921875 C-20.59732422 4.22792969 -19.53449219 3.96367188 -18.43945312 3.69140625 C-17.32505859 3.42199219 -16.21066406 3.15257813 -15.0625 2.875 C-13.95197266 2.59785156 -12.84144531 2.32070312 -11.69726562 2.03515625 C-3.42129772 0 -3.42129772 0 0 0 Z " fill="#F5BB64" transform="translate(61,81)"/>
<path d="M0 0 C0.99 0 1.98 0 3 0 C3 8.25 3 16.5 3 25 C-0.96 25 -4.92 25 -9 25 C-13 21 -13 21 -13.53125 19 C-13.47380665 15.3236257 -13.43292605 13.56280387 -11.125 10.5625 C-7.29984042 7.74988266 -4.71882042 7.91261444 0 8 C0 5.36 0 2.72 0 0 Z " fill="#E2E2E5" transform="translate(321,30)"/>
<path d="M0 0 C0.99 0 1.98 0 3 0 C3 8.25 3 16.5 3 25 C2.34 25 1.68 25 1 25 C1 24.34 1 23.68 1 23 C0.01 23.66 -0.98 24.32 -2 25 C-5.46567407 25.44242648 -7.33214537 25.38665268 -10.375 23.625 C-12.81875537 19.67739518 -12.8392962 15.52917501 -12 11 C-10.40219344 8.71452986 -9.46508012 8.10522538 -6.73828125 7.48828125 C-5.93777344 7.43027344 -5.13726562 7.37226562 -4.3125 7.3125 C-3.50425781 7.24675781 -2.69601563 7.18101563 -1.86328125 7.11328125 C-0.94095703 7.05720703 -0.94095703 7.05720703 0 7 C0 4.69 0 2.38 0 0 Z " fill="#DFDEE2" transform="translate(187,70)"/>
<path d="M0 0 C12.35611219 -0.49424449 12.35611219 -0.49424449 15.38671875 1.83203125 C17 4 17 4 17.5625 6.9375 C16.7820239 11.18675879 15.54202539 12.5422681 12 15 C8.95123812 15.40276286 6.05480604 15.29949079 3 15 C3 17.64 3 20.28 3 23 C2.01 23 1.02 23 0 23 C0 15.41 0 7.82 0 0 Z " fill="#E6E6E8" transform="translate(222,72)"/>
<path d="M0 0 C-0.33 1.65 -0.66 3.3 -1 5 C-5.24777375 6.17487815 -9.49855674 7.338477 -13.75 8.5 C-14.9565625 8.83386719 -16.163125 9.16773437 -17.40625 9.51171875 C-19.14648438 9.98544922 -19.14648438 9.98544922 -20.921875 10.46875 C-21.99018555 10.76201172 -23.05849609 11.05527344 -24.15917969 11.35742188 C-27 12 -27 12 -31 12 C-30.67 10.35 -30.34 8.7 -30 7 C-28.35 6.67 -26.7 6.34 -25 6 C-24.8453125 5.071875 -24.8453125 5.071875 -24.6875 4.125 C-24 2 -24 2 -21 0 C-19.2283076 -0.62256064 -17.43295539 -1.1797865 -15.625 -1.6875 C-14.22121094 -2.09548828 -14.22121094 -2.09548828 -12.7890625 -2.51171875 C-8.0252332 -3.34572248 -4.35694493 -1.86726211 0 0 Z " fill="#F2F2F3" transform="translate(107,104)"/>
<path d="M0 0 C2.1640625 0.37890625 2.1640625 0.37890625 4.7265625 1.94140625 C6.71993275 5.32146885 6.63897063 7.51179721 6.1640625 11.37890625 C3.9640625 15.97890625 3.9640625 15.97890625 1.1640625 17.37890625 C-2.2109375 17.75390625 -2.2109375 17.75390625 -5.8359375 17.37890625 C-8.41122341 15.26585115 -9.60162977 13.7235131 -10.1796875 10.40625 C-10.31705607 7.34407569 -9.97336384 4.74537648 -8.8984375 1.87890625 C-5.9741692 -0.24783433 -3.55128897 -0.17929961 0 0 Z " fill="#F1F1F2" transform="translate(322.8359375,77.62109375)"/>
<path d="M0 0 C2.4375 1.4375 2.4375 1.4375 4 4 C4.76726228 8.31090664 4.73340143 11.74710589 2.5 15.5625 C-1.26364476 17.72659573 -3.68055941 17.47993784 -8 17 C-10.17476401 15.45661909 -10.81832637 14.36334727 -12 12 C-12.49055907 7.66672826 -12.47744439 5.67999656 -9.9375 2.0625 C-6.25937488 -0.52001338 -4.40768137 -0.72125695 0 0 Z " fill="#E9E9EB" transform="translate(340,38)"/>
<path d="M0 0 C0.79148437 -0.02578125 1.58296875 -0.0515625 2.3984375 -0.078125 C4.625 0.25 4.625 0.25 6.3828125 1.45703125 C8.81988783 4.97469658 8.33159438 9.17708336 7.625 13.25 C5.06171968 16.4164051 3.55237927 17.09859114 -0.4375 17.75 C-3.375 17.25 -3.375 17.25 -5.6875 15.6875 C-7.92671252 12.45308192 -8.30623623 10.16953479 -8.375 6.25 C-6.11440595 1.52330335 -5.14072607 0.09981992 0 0 Z " fill="#242138" transform="translate(262.375,77.75)"/>
<path d="M0 0 C4.87731839 1.44513138 4.87731839 1.44513138 6.375 4 C6.375 5.98 6.375 7.96 6.375 10 C2.415 10 -1.545 10 -5.625 10 C-4.965 11.32 -4.305 12.64 -3.625 14 C-1.43958448 14.6993514 -1.43958448 14.6993514 1 14.75 C2.22589844 14.83507812 2.22589844 14.83507812 3.4765625 14.921875 C4.10304687 14.94765625 4.72953125 14.9734375 5.375 15 C5.375 15.66 5.375 16.32 5.375 17 C-3.63970128 17.77416328 -3.63970128 17.77416328 -7.25 14.9375 C-8.98564272 11.22953601 -9.27597682 9.05052242 -8.625 5 C-5.93921083 1.09339758 -4.80084596 0 0 0 Z " fill="#ECECEE" transform="translate(206.625,38)"/>
<path d="M0 0 C7.23404255 -0.36170213 7.23404255 -0.36170213 10.25 1.0625 C12.88547698 3.98034952 12.39114399 6.34132619 12.25 10.1875 C12.21390625 11.45980469 12.1778125 12.73210938 12.140625 14.04296875 C12.07101562 15.50669922 12.07101562 15.50669922 12 17 C10.68 17 9.36 17 8 17 C6.97519531 17.03480469 6.97519531 17.03480469 5.9296875 17.0703125 C3.95368583 17.1229057 1.97567379 17.06373141 0 17 C-0.66 16.34 -1.32 15.68 -2 15 C-1.67028521 11.70285207 -1.3773161 10.3773161 1 8 C3.65537372 7.43479997 6.29144713 7.26211802 9 7 C8.67 5.68 8.34 4.36 8 3 C5.03 3 2.06 3 -1 3 C-0.67 2.01 -0.34 1.02 0 0 Z " fill="#CAC9CF" transform="translate(292,38)"/>
<path d="M0 0 C2.375 1.625 2.375 1.625 4 4 C4 5.98 4 7.96 4 10 C0.04 10 -3.92 10 -8 10 C-7.34 11.32 -6.68 12.64 -6 14 C-3.81458448 14.6993514 -3.81458448 14.6993514 -1.375 14.75 C-0.14910156 14.83507812 -0.14910156 14.83507812 1.1015625 14.921875 C1.72804687 14.94765625 2.35453125 14.9734375 3 15 C3 15.66 3 16.32 3 17 C1.39667209 17.08121924 -0.20784026 17.13929134 -1.8125 17.1875 C-3.15248047 17.23970703 -3.15248047 17.23970703 -4.51953125 17.29296875 C-7 17 -7 17 -8.796875 15.796875 C-11.16310837 12.2628901 -10.59203573 8.06442508 -10 4 C-7.39600113 -0.20645971 -4.7957648 -0.79929413 0 0 Z " fill="#E6E6E8" transform="translate(239,38)"/>
<path d="M0 0 C1.87109375 0.31640625 1.87109375 0.31640625 3.80859375 1.44140625 C5.25700887 3.99743294 5.54924958 6.41980872 5.87109375 9.31640625 C1.91109375 9.31640625 -2.04890625 9.31640625 -6.12890625 9.31640625 C-5.79890625 10.63640625 -5.46890625 11.95640625 -5.12890625 13.31640625 C-2.84184794 14.45993541 -1.53625863 14.41975064 0.99609375 14.37890625 C2.27484375 14.35828125 3.55359375 14.33765625 4.87109375 14.31640625 C4.87109375 14.97640625 4.87109375 15.63640625 4.87109375 16.31640625 C1.73238187 17.88576219 -0.66746447 17.66841728 -4.12890625 17.31640625 C-7.05378732 15.32499786 -8.79878907 13.90411267 -9.5390625 10.34375 C-9.671741 7.25753268 -9.27378102 4.67859319 -8.12890625 1.81640625 C-5.40792444 -0.22433011 -3.33726934 -0.18982633 0 0 Z " fill="#FCFCFC" transform="translate(291.12890625,77.68359375)"/>
<path d="M0 0 C2 1.125 2 1.125 3 3 C3 4.98 3 6.96 3 9 C-0.96 9 -4.92 9 -9 9 C-6.73300478 13.99112846 -6.73300478 13.99112846 -3.95703125 14.70703125 C-3.24933594 14.74183594 -2.54164063 14.77664062 -1.8125 14.8125 C-0.554375 14.874375 0.70375 14.93625 2 15 C1.67 15.66 1.34 16.32 1 17 C-6.12208505 17.60356653 -6.12208505 17.60356653 -10 14.9375 C-12.48980198 11.28060335 -12.55310065 9.34579086 -12 5 C-9.85583422 -0.81987855 -5.68592928 -0.62789403 0 0 Z " fill="#D6D6DA" transform="translate(206,78)"/>
<path d="M0 0 C0 3.96 0 7.92 0 12 C-9.75 15 -9.75 15 -12 15 C-12 10.71 -12 6.42 -12 2 C-7.69214025 0.64851459 -4.58042408 0 0 0 Z " fill="#1D1A33" transform="translate(76,61)"/>
<path d="M0 0 C0.91007813 0.00902344 1.82015625 0.01804687 2.7578125 0.02734375 C3.45648438 0.03894531 4.15515625 0.05054687 4.875 0.0625 C5.205 1.0525 5.535 2.0425 5.875 3.0625 C5.28332031 3.02769531 4.69164062 2.99289063 4.08203125 2.95703125 C0.45011983 2.83261014 -2.66087945 2.93936598 -6.1875 3.875 C-9.08680294 7.14840654 -8.68569895 10.22251644 -8.69140625 14.46875 C-8.34535748 17.15798737 -8.34535748 17.15798737 -6.35546875 18.86328125 C-2.93554853 20.70201244 0.02515651 20.74167971 3.875 21.0625 C3.875 18.0925 3.875 15.1225 3.875 12.0625 C4.865 12.0625 5.855 12.0625 6.875 12.0625 C6.875 15.6925 6.875 19.3225 6.875 23.0625 C4.81367858 23.17114945 2.75068679 23.24838321 0.6875 23.3125 C-1.03533203 23.38210937 -1.03533203 23.38210937 -2.79296875 23.453125 C-6.76479862 22.9874943 -8.31271485 21.83879613 -11.125 19.0625 C-13.10198481 15.10853037 -12.69569292 10.36130647 -12.125 6.0625 C-8.44678068 1.22273774 -5.89626049 -0.07559308 0 0 Z " fill="#E4E4E6" transform="translate(187.125,31.9375)"/>
<path d="M0 0 C0 3.96 0 7.92 0 12 C-2.78863007 13.39431504 -4.92078868 13.25660094 -8 13 C-10.46324069 9.30513897 -10.38991688 7.36706908 -10 3 C-7.7672032 -1.07157064 -4.21152194 -0.23838803 0 0 Z " fill="#242137" transform="translate(321,40)"/>
<path d="M0 0 C1 1 1 1 1.09765625 3.28515625 C1.08605469 4.20167969 1.07445312 5.11820313 1.0625 6.0625 C1.05347656 6.98160156 1.04445313 7.90070312 1.03515625 8.84765625 C1.02355469 9.55792969 1.01195312 10.26820312 1 11 C-1.78863007 12.39431504 -3.92078868 12.25660094 -7 12 C-9.46324069 8.30513897 -9.38991688 6.36706908 -9 2 C-6.746916 -2.00548266 -4.04187444 -1.05440203 0 0 Z " fill="#221F35" transform="translate(340,41)"/>
<path d="M0 0 C0.79148437 -0.02578125 1.58296875 -0.0515625 2.3984375 -0.078125 C4.625 0.25 4.625 0.25 6.3828125 1.45703125 C8.81988783 4.97469658 8.33159438 9.17708336 7.625 13.25 C5.06171968 16.4164051 3.55237927 17.09859114 -0.4375 17.75 C-3.375 17.25 -3.375 17.25 -5.6875 15.6875 C-7.92671252 12.45308192 -8.30623623 10.16953479 -8.375 6.25 C-6.11440595 1.52330335 -5.14072607 0.09981992 0 0 Z M-5.375 4.25 C-5.6926246 6.16006306 -5.6926246 6.16006306 -5.625 8.25 C-5.63015625 8.95125 -5.6353125 9.6525 -5.640625 10.375 C-5.53205515 12.4935669 -5.53205515 12.4935669 -3.375 14.25 C0.125 14.66666667 0.125 14.66666667 3.625 14.25 C5.93782587 10.78076119 6.04978586 9.32794425 5.625 5.25 C4.625 3.25 4.625 3.25 2.625 2.25 C-1.88604481 1.69504417 -1.88604481 1.69504417 -5.375 4.25 Z " fill="#E9E9EB" transform="translate(262.375,77.75)"/>
<path d="M0 0 C6.8359375 -0.1953125 6.8359375 -0.1953125 9 0 C11 2 11 2 11.375 4.9375 C11 8 11 8 9.4375 9.875 C6.19726212 11.3704944 3.52393641 11.20330402 0 11 C0 7.37 0 3.74 0 0 Z " fill="#1E1B32" transform="translate(225,74)"/>
<path d="M0 0 C3 0.25 3 0.25 5 2.25 C5.265625 4.125 5.265625 4.125 5.25 6.25 C5.25515625 6.95125 5.2603125 7.6525 5.265625 8.375 C5 10.25 5 10.25 3 12.25 C-0.5625 12.4375 -0.5625 12.4375 -4 12.25 C-5.58894072 10.66105928 -5.16998411 9.00198576 -5.1875 6.8125 C-5.20167969 6.00941406 -5.21585937 5.20632812 -5.23046875 4.37890625 C-4.83791825 0.7528042 -3.47671176 0.28972598 0 0 Z " fill="#1F1C33" transform="translate(321,79.75)"/>
<path d="M0 0 C0.02687279 1.81242052 0.04633715 3.62495233 0.0625 5.4375 C0.07410156 6.44683594 0.08570313 7.45617187 0.09765625 8.49609375 C0 11 0 11 -1 12 C-4.4375 12.1875 -4.4375 12.1875 -8 12 C-10 10 -10 10 -10.3125 6.5625 C-10 3 -10 3 -8.9375 1.0625 C-5.98831309 -0.55479605 -3.29132441 -0.18630138 0 0 Z " fill="#1F1C33" transform="translate(187,80)"/>
<path d="M0 0 C1.32 0.33 2.64 0.66 4 1 C4.66 0.67 5.32 0.34 6 0 C11.29077039 -0.45027833 11.29077039 -0.45027833 13.6796875 1.06640625 C15.70951075 4.0390764 15.28497902 6.64576222 15.1875 10.1875 C15.16042969 11.45980469 15.13335937 12.73210938 15.10546875 14.04296875 C15.07066406 15.01878906 15.03585937 15.99460937 15 17 C14.34 17 13.68 17 13 17 C12.67 12.38 12.34 7.76 12 3 C9.36 3.33 6.72 3.66 4 4 C3.67 8.29 3.34 12.58 3 17 C2.01 17 1.02 17 0 17 C0 11.39 0 5.78 0 0 Z " fill="#DEDEE1" transform="translate(247,38)"/>
<path d="M0 0 C0.66 0 1.32 0 2 0 C2 1.98 2 3.96 2 6 C4.31 6 6.62 6 9 6 C9 6.66 9 7.32 9 8 C7.02 8 5.04 8 3 8 C3 11.96 3 15.92 3 20 C4.98 20 6.96 20 9 20 C9 20.99 9 21.98 9 23 C3.54545455 23.36363636 3.54545455 23.36363636 1.3125 21.875 C-0.58347379 19.16646601 -0.29278753 17.07641345 -0.1875 13.8125 C-0.16042969 12.72582031 -0.13335937 11.63914062 -0.10546875 10.51953125 C-0.07066406 9.68808594 -0.03585937 8.85664062 0 8 C-1.32 8 -2.64 8 -4 8 C-4 7.34 -4 6.68 -4 6 C-2.68 6 -1.36 6 0 6 C0 4.02 0 2.04 0 0 Z " fill="#DDDDE0" transform="translate(302,72)"/>
<path d="M0 0 C1.21236328 0.04060547 1.21236328 0.04060547 2.44921875 0.08203125 C3.06410156 0.11683594 3.67898438 0.15164062 4.3125 0.1875 C4.3125 0.8475 4.3125 1.5075 4.3125 2.1875 C1.6725 2.5175 -0.9675 2.8475 -3.6875 3.1875 C-3.6875 4.1775 -3.6875 5.1675 -3.6875 6.1875 C-0.7175 7.1775 2.2525 8.1675 5.3125 9.1875 C5.5 12.0625 5.5 12.0625 5.3125 15.1875 C2.10869983 17.32336678 1.29310033 17.41882175 -2.375 17.3125 C-3.18324219 17.29445313 -3.99148438 17.27640625 -4.82421875 17.2578125 C-5.43910156 17.23460938 -6.05398438 17.21140625 -6.6875 17.1875 C-6.6875 16.5275 -6.6875 15.8675 -6.6875 15.1875 C-4.0475 14.8575 -1.4075 14.5275 1.3125 14.1875 C1.6425 13.1975 1.9725 12.2075 2.3125 11.1875 C-0.6575 10.1975 -3.6275 9.2075 -6.6875 8.1875 C-7.375 5.875 -7.375 5.875 -7.6875 3.1875 C-5.4587174 0.07893479 -3.70889568 -0.16125633 0 0 Z " fill="#DEDDE1" transform="translate(339.6875,77.8125)"/>
<path d="M0 0 C0 0.66 0 1.32 0 2 C-0.56589844 2.12117188 -1.13179688 2.24234375 -1.71484375 2.3671875 C-2.81505859 2.61855469 -2.81505859 2.61855469 -3.9375 2.875 C-4.66839844 3.03742187 -5.39929688 3.19984375 -6.15234375 3.3671875 C-8.20700294 3.82961523 -8.20700294 3.82961523 -9 6 C-9.25 9 -9.25 9 -9 12 C-6.23776722 14.76223278 -3.79293383 14.57856291 0 15 C0 15.66 0 16.32 0 17 C-8.12065137 17.61287935 -8.12065137 17.61287935 -11.0625 15.5625 C-12.44636548 11.77993434 -12.74591019 7.97087484 -12 4 C-8.47773322 -0.31920423 -5.39043965 -0.09982296 0 0 Z " fill="#F0EFF1" transform="translate(279,38)"/>
<path d="M0 0 C0.66 0 1.32 0 2 0 C2 0.66 2 1.32 2 2 C2.5775 1.67 3.155 1.34 3.75 1 C6 0 6 0 10 0 C10 0.99 10 1.98 10 3 C7.69 3.33 5.38 3.66 3 4 C3 8.29 3 12.58 3 17 C2.01 17 1.02 17 0 17 C0 11.39 0 5.78 0 0 Z " fill="#DAD9DD" transform="translate(217,38)"/>
<path d="M0 0 C3.33333333 0 6.66666667 0 10 0 C10 0.66 10 1.32 10 2 C7.69 2.33 5.38 2.66 3 3 C3 7.62 3 12.24 3 17 C2.01 17 1.02 17 0 17 C0 11.39 0 5.78 0 0 Z " fill="#DEDDE0" transform="translate(243,78)"/>
<path d="M0 0 C3.86107457 2.57404971 3.94319692 4.61020259 5 9 C7.64 9 10.28 9 13 9 C13 6.03 13 3.06 13 0 C13.33 0 13.66 0 14 0 C14.33 3.3 14.66 6.6 15 10 C11.21317793 12.52454805 8.44565082 12.62183425 4 12 C1.82523599 10.45661909 1.18167363 9.36334727 0 7 C-0.04022391 4.6670134 -0.04320247 2.33293334 0 0 Z " fill="#DFDEE1" transform="translate(328,43)"/>
<path d="M0 0 C2.34549674 3.51824511 2.57991403 4.85775694 2 9 C-0.5 11.875 -0.5 11.875 -3 14 C-3.66 13.67 -4.32 13.34 -5 13 C-5 12.34 -5 11.68 -5 11 C-4.01 10.34 -3.02 9.68 -2 9 C-1.66659529 5.95804573 -1.66659529 5.95804573 -2 3 C-3.58272601 1.41727399 -5.38034003 1.65264253 -7.5625 1.4375 C-8.38878906 1.35371094 -9.21507812 1.26992187 -10.06640625 1.18359375 C-10.70449219 1.12300781 -11.34257812 1.06242187 -12 1 C-12 0.67 -12 0.34 -12 0 C-2.94339623 -1.35849057 -2.94339623 -1.35849057 0 0 Z " fill="#DADADD" transform="translate(237,73)"/>
<path d="M0 0 C0 0.99 0 1.98 0 3 C-2.31 3.66 -4.62 4.32 -7 5 C-7.33 8.96 -7.66 12.92 -8 17 C-8.66 17 -9.32 17 -10 17 C-10 11.72 -10 6.44 -10 1 C-6.33418546 0.26683709 -3.63300168 -0.10380005 0 0 Z " fill="#E6E6E9" transform="translate(359,38)"/>
<path d="M0 0 C0.91007813 0.00902344 1.82015625 0.01804687 2.7578125 0.02734375 C3.45648438 0.03894531 4.15515625 0.05054687 4.875 0.0625 C5.205 1.0525 5.535 2.0425 5.875 3.0625 C5.28332031 3.02769531 4.69164062 2.99289063 4.08203125 2.95703125 C0.41152878 2.8312881 -2.5988756 2.89808613 -6.125 4 C-9.21747108 7.1891108 -9.02584706 10.76286777 -9.125 15.0625 C-9.455 15.0625 -9.785 15.0625 -10.125 15.0625 C-10.269375 13.94875 -10.41375 12.835 -10.5625 11.6875 C-10.90872035 8.24107953 -10.90872035 8.24107953 -12.125 6.0625 C-6.14123377 -0.07873377 -6.14123377 -0.07873377 0 0 Z " fill="#D5D5D9" transform="translate(187.125,31.9375)"/>
<path d="M0 0 C0.66 1.32 1.32 2.64 2 4 C6.29 4 10.58 4 15 4 C15 4.33 15 4.66 15 5 C11.04 5 7.08 5 3 5 C3.66 6.32 4.32 7.64 5 9 C7.18541552 9.6993514 7.18541552 9.6993514 9.625 9.75 C10.85089844 9.83507812 10.85089844 9.83507812 12.1015625 9.921875 C12.72804687 9.94765625 13.35453125 9.9734375 14 10 C14 10.66 14 11.32 14 12 C4.98529872 12.77416328 4.98529872 12.77416328 1.375 9.9375 C-0.27624851 6.40983272 -0.30207788 3.85149295 0 0 Z " fill="#C5C4CA" transform="translate(198,43)"/>
<path d="M0 0 C0.66 0 1.32 0 2 0 C2.0582253 3.08325358 2.09367134 6.16636505 2.125 9.25 C2.14175781 10.12269531 2.15851563 10.99539062 2.17578125 11.89453125 C2.18222656 12.73886719 2.18867188 13.58320312 2.1953125 14.453125 C2.20578613 15.22817383 2.21625977 16.00322266 2.22705078 16.80175781 C1.97326556 19.25883539 1.22444152 20.87311542 0 23 C-0.99 23 -1.98 23 -3 23 C-2.68289063 22.19304687 -2.36578125 21.38609375 -2.0390625 20.5546875 C-0.81087411 16.35299039 -0.55200991 12.4764935 -0.375 8.125 C-0.33632813 7.34125 -0.29765625 6.5575 -0.2578125 5.75 C-0.16433378 3.83368633 -0.08111505 1.91687681 0 0 Z " fill="#F4F4F5" transform="translate(275,78)"/>
<path d="M0 0 C0.99 0 1.98 0 3 0 C3 5.61 3 11.22 3 17 C2.01 17 1.02 17 0 17 C0 11.39 0 5.78 0 0 Z " fill="#D4D4D8" transform="translate(283,38)"/>
<path d="M0 0 C2.625 0.25 2.625 0.25 4.4375 1.5625 C5.625 3.25 5.625 3.25 5.625 6.25 C2.325 6.25 -0.975 6.25 -4.375 6.25 C-3.31585282 0.34903714 -3.31585282 0.34903714 0 0 Z " fill="#2C293F" transform="translate(235.375,39.75)"/>
<path d="M0 0 C2.625 0.3125 2.625 0.3125 4.4375 2.1875 C5.625 4.3125 5.625 4.3125 5.625 6.3125 C2.325 6.3125 -0.975 6.3125 -4.375 6.3125 C-3.32040428 0.4368953 -3.32040428 0.4368953 0 0 Z " fill="#2B283D" transform="translate(205.375,39.6875)"/>
<path d="M0 0 C0.66 0 1.32 0 2 0 C2 8.25 2 16.5 2 25 C1.34 24.67 0.68 24.34 0 24 C-0.37890625 20.91015625 -0.37890625 20.91015625 -0.5625 17.0625 C-0.62577741 12.36648058 -0.62577741 12.36648058 -2 8 C-1.34 8 -0.68 8 0 8 C0 5.36 0 2.72 0 0 Z " fill="#EBEBED" transform="translate(188,70)"/>
<path d="M0 0 C0.33 0 0.66 0 1 0 C1.09796875 0.68707031 1.1959375 1.37414063 1.296875 2.08203125 C1.52117187 3.43361328 1.52117187 3.43361328 1.75 4.8125 C1.88921875 5.70582031 2.0284375 6.59914063 2.171875 7.51953125 C3.17827304 10.53397822 4.46834331 11.20417035 7 13 C7 13.99 7 14.98 7 16 C4.33070993 15.1342843 2.32258164 14.27808762 0.1875 12.4375 C-1.60772905 8.75255616 -1.42559416 5.03496004 -1 1 C-0.67 0.67 -0.34 0.34 0 0 Z " fill="#EDEDEF" transform="translate(176,39)"/>
<path d="M0 0 C2.31 0 4.62 0 7 0 C7.33 1.65 7.66 3.3 8 5 C5.03 5 2.06 5 -1 5 C-0.67 3.35 -0.34 1.7 0 0 Z " fill="#211E34" transform="translate(286,80)"/>
<path d="M0 0 C0.33 0 0.66 0 1 0 C1.125 7.75 1.125 7.75 0 10 C-2.3306218 10.35179197 -4.66435067 10.68330179 -7 11 C-9.33588323 11.95584438 -9.33588323 11.95584438 -11 13 C-11 12.01 -11 11.02 -11 10 C-7.33513904 7.08966924 -4.60625394 6.67863345 0 7 C0 4.69 0 2.38 0 0 Z " fill="#C4C3C9" transform="translate(187,70)"/>
<path d="M0 0 C1.4540625 0.0309375 1.4540625 0.0309375 2.9375 0.0625 C3.2675 1.7125 3.5975 3.3625 3.9375 5.0625 C0.9675 5.0625 -2.0025 5.0625 -5.0625 5.0625 C-3.81634615 0.07788462 -3.81634615 0.07788462 0 0 Z " fill="#201D33" transform="translate(202.0625,79.9375)"/>
<path d="M0 0 C7.33333333 -0.36666667 7.33333333 -0.36666667 10.5 1.375 C12 3 12 3 12 5 C11.34 5 10.68 5 10 5 C10 5.99 10 6.98 10 8 C8.68 7.67 7.36 7.34 6 7 C6.99 7 7.98 7 9 7 C8.67 5.68 8.34 4.36 8 3 C5.03 3 2.06 3 -1 3 C-0.67 2.01 -0.34 1.02 0 0 Z " fill="#C8C7CD" transform="translate(292,38)"/>
<path d="M0 0 C1.134375 0.020625 2.26875 0.04125 3.4375 0.0625 C3.1075 1.7125 2.7775 3.3625 2.4375 5.0625 C0.4575 5.0625 -1.5225 5.0625 -3.5625 5.0625 C-4.125 3.125 -4.125 3.125 -4.5625 1.0625 C-3.5625 0.0625 -3.5625 0.0625 0 0 Z " fill="#201D33" transform="translate(297.5625,47.9375)"/>
<path d="M0 0 C0.33 0 0.66 0 1 0 C1.29363808 4.99184736 1.07836372 7.97444744 -2 12 C-4.95664519 13.4783226 -7.74229737 13.06032783 -11 13 C-10.67 12.01 -10.34 11.02 -10 10 C-7.68152126 9.2833793 -5.34680297 8.61757973 -3 8 C-0.4345406 5.4345406 -0.45953913 3.52313332 0 0 Z " fill="#C0C0C6" transform="translate(328,82)"/>
<path d="M0 0 C2.64 0 5.28 0 8 0 C9.42944945 2.35438733 10.08661261 3.48032433 9.625 6.25 C9.41875 6.8275 9.2125 7.405 9 8 C8.67 7.67 8.34 7.34 8 7 C6.14712498 6.92773498 4.29166122 6.9161878 2.4375 6.9375 C1.42558594 6.94652344 0.41367187 6.95554687 -0.62890625 6.96484375 C-1.41136719 6.97644531 -2.19382812 6.98804687 -3 7 C-2.67 6.01 -2.34 5.02 -2 4 C-2 4.66 -2 5.32 -2 6 C0.97 6 3.94 6 7 6 C6.67 4.35 6.34 2.7 6 1 C4.02 1 2.04 1 0 1 C0 0.67 0 0.34 0 0 Z " fill="#C8C7CC" transform="translate(287,79)"/>
<path d="M0 0 C0.99 0.33 1.98 0.66 3 1 C2.67 1.66 2.34 2.32 2 3 C1.77532169 4.53668865 1.59203195 6.07968054 1.4375 7.625 C1.35371094 8.44226562 1.26992188 9.25953125 1.18359375 10.1015625 C1.12300781 10.72804688 1.06242187 11.35453125 1 12 C0.01 11.67 -0.98 11.34 -2 11 C-2.25 3.375 -2.25 3.375 0 0 Z " fill="#E0DFE2" transform="translate(310,40)"/>
<path d="M0 0 C0.66 0 1.32 0 2 0 C2 3.96 2 7.92 2 12 C0.35 11.67 -1.3 11.34 -3 11 C-2.67 10.34 -2.34 9.68 -2 9 C-1.34 9 -0.68 9 0 9 C0 7.35 0 5.7 0 4 C-1.98 4 -3.96 4 -6 4 C-6 3.67 -6 3.34 -6 3 C-4.02 3 -2.04 3 0 3 C0 2.01 0 1.02 0 0 Z " fill="#FCFCFD" transform="translate(302,43)"/>
<path d="M0 0 C0.28875 0.639375 0.5775 1.27875 0.875 1.9375 C1.82823451 4.15206079 1.82823451 4.15206079 4 5 C5.37342831 5.0689472 6.75002102 5.08467708 8.125 5.0625 C9.40375 5.041875 10.6825 5.02125 12 5 C12 5.66 12 6.32 12 7 C8.94306678 8.52846661 6.37015453 8.23242445 3 8 C0.5625 6.5 0.5625 6.5 -1 5 C-0.67 3.35 -0.34 1.7 0 0 Z " fill="#DDDDE0" transform="translate(284,87)"/>
<path d="M0 0 C0.33 0 0.66 0 1 0 C1.08131463 1.43655854 1.13933559 2.8744483 1.1875 4.3125 C1.22230469 5.11300781 1.25710938 5.91351563 1.29296875 6.73828125 C1 9 1 9 -0.28125 10.78125 C-3.03237667 12.73204891 -5.74123057 12.18445865 -9 12 C-9 11.67 -9 11.34 -9 11 C-8.071875 10.855625 -7.14375 10.71125 -6.1875 10.5625 C-2.90682422 9.35419015 -2.90682422 9.35419015 -1.93359375 6.86328125 C-1.19449517 4.58885712 -0.54605174 2.32790481 0 0 Z " fill="#F6F6F7" transform="translate(269,82)"/>
<path d="M0 0 C0.66 0 1.32 0 2 0 C2.07476562 0.62648438 2.14953125 1.25296875 2.2265625 1.8984375 C2.62998447 4.40598191 3.06609491 6.63497183 4 9 C6.98283157 10.69165301 6.98283157 10.69165301 10 11 C10 11.33 10 11.66 10 12 C3.6217765 12.48137536 3.6217765 12.48137536 1.0625 10.5 C-0.47684003 6.87802345 -0.19601854 3.92037077 0 0 Z " fill="#F9F9F9" transform="translate(313,82)"/>
<path d="M0 0 C2.375 2 2.375 2 4 4 C3.01 4.33 2.02 4.66 1 5 C0.34 4.34 -0.32 3.68 -1 3 C-3.5 2.66666667 -3.5 2.66666667 -6 3 C-6.66 3.66 -7.32 4.32 -8 5 C-8 3.68 -8 2.36 -8 1 C-5.15916359 -0.42041821 -3.14522722 -0.31452272 0 0 Z " fill="#D8D8DC" transform="translate(239,38)"/>
<path d="M0 0 C-0.33 0.66 -0.66 1.32 -1 2 C-3.06640625 2.6328125 -3.06640625 2.6328125 -5.5625 3.125 C-6.38878906 3.29257813 -7.21507813 3.46015625 -8.06640625 3.6328125 C-8.70449219 3.75398438 -9.34257813 3.87515625 -10 4 C-10.33 3.01 -10.66 2.02 -11 1 C-3.57142857 -1.42857143 -3.57142857 -1.42857143 0 0 Z " fill="#2D2948" transform="translate(98,100)"/>
<path d="M0 0 C0 0.66 0 1.32 0 2 C-2.01822917 2.45572917 -4.03645833 2.91145833 -6.0546875 3.3671875 C-8.20719964 3.90474428 -8.20719964 3.90474428 -10 6 C-10.66 6 -11.32 6 -12 6 C-11.66411682 3.48087612 -11.42645046 2.32803881 -9.375 0.75 C-6.1989627 -0.25295915 -3.30771122 -0.12721966 0 0 Z " fill="#E4E3E6" transform="translate(279,38)"/>
<path d="M0 0 C0.33 0 0.66 0 1 0 C1.33 4.62 1.66 9.24 2 14 C-0.64 14 -3.28 14 -6 14 C-3 12 -3 12 -1 11 C-0.5316735 8.41394668 -0.5316735 8.41394668 -0.375 5.4375 C-0.30023438 4.42558594 -0.22546875 3.41367188 -0.1484375 2.37109375 C-0.09945312 1.58863281 -0.05046875 0.80617188 0 0 Z " fill="#D7D6DA" transform="translate(187,80)"/>
<path d="M0 0 C5.4 -0.36 5.4 -0.36 7.875 1.125 C9.4682099 3.78034983 9.20214032 5.96789518 9 9 C8.01 8.67 7.02 8.34 6 8 C5.9071875 6.824375 5.9071875 6.824375 5.8125 5.625 C5.544375 4.75875 5.27625 3.8925 5 3 C2.52363988 1.62533375 2.52363988 1.62533375 0 1 C0 0.67 0 0.34 0 0 Z " fill="#EFEFF1" transform="translate(200,78)"/>
<path d="M0 0 C0.33 0 0.66 0 1 0 C1.3125 2.6875 1.3125 2.6875 1 6 C-1.5 8.875 -1.5 8.875 -4 11 C-4.66 10.67 -5.32 10.34 -6 10 C-6 9.34 -6 8.68 -6 8 C-5.195625 7.566875 -4.39125 7.13375 -3.5625 6.6875 C-0.75717669 5.23212941 -0.75717669 5.23212941 -0.1875 2.3125 C-0.125625 1.549375 -0.06375 0.78625 0 0 Z " fill="#CFCED3" transform="translate(238,76)"/>
<path d="M0 0 C3.96 0.33 7.92 0.66 12 1 C12 1.66 12 2.32 12 3 C10.37581255 3.08090971 8.75048255 3.13914995 7.125 3.1875 C5.76761719 3.23970703 5.76761719 3.23970703 4.3828125 3.29296875 C3.20332031 3.14794922 3.20332031 3.14794922 2 3 C1.34 2.01 0.68 1.02 0 0 Z " fill="#E8E8EA" transform="translate(200,52)"/>
<path d="M0 0 C3.125 0.375 3.125 0.375 6 1 C5.360625 1.309375 4.72125 1.61875 4.0625 1.9375 C2.06389179 2.8345163 2.06389179 2.8345163 1 4 C0.63239269 6.32817964 0.29758419 8.6618385 0 11 C-0.33 11 -0.66 11 -1 11 C-1.22174933 9.54364629 -1.42698698 8.08477044 -1.625 6.625 C-1.74101562 5.81289062 -1.85703125 5.00078125 -1.9765625 4.1640625 C-1.98429687 3.44992188 -1.99203125 2.73578125 -2 2 C-1.34 1.34 -0.68 0.68 0 0 Z " fill="#C2C1C7" transform="translate(316,78)"/>
<path d="M0 0 C2.01822917 0.06510417 4.03645833 0.13020833 6.0546875 0.1953125 C6.0546875 0.5253125 6.0546875 0.8553125 6.0546875 1.1953125 C4.9821875 1.4428125 3.9096875 1.6903125 2.8046875 1.9453125 C-0.94180687 3.19414396 -2.46605132 4.22019908 -4.9453125 7.1953125 C-3.87057023 0.38861147 -3.87057023 0.38861147 0 0 Z " fill="#EBEBED" transform="translate(286.9453125,77.8046875)"/>
<path d="M0 0 C2.97 0.33 5.94 0.66 9 1 C9 1.99 9 2.98 9 4 C3.375 4.25 3.375 4.25 0 2 C0 1.34 0 0.68 0 0 Z " fill="#BBBAC1" transform="translate(256,91)"/>
<path d="M0 0 C0.33 0 0.66 0 1 0 C1.33 3.3 1.66 6.6 2 10 C0.02 10.99 0.02 10.99 -2 12 C-2 11.01 -2 10.02 -2 9 C-1.34 9 -0.68 9 0 9 C0 6.03 0 3.06 0 0 Z " fill="#C7C7CC" transform="translate(341,43)"/>
<path d="M0 0 C0 0.99 0 1.98 0 3 C-2.875 3.625 -2.875 3.625 -6 4 C-6.66 3.34 -7.32 2.68 -8 2 C-4.91190305 0.23537317 -3.76687864 0 0 0 Z " fill="#D3D3D7" transform="translate(227,38)"/>
<path d="M0 0 C0.86625 0.556875 0.86625 0.556875 1.75 1.125 C1.75 2.115 1.75 3.105 1.75 4.125 C1.09 4.125 0.43 4.125 -0.25 4.125 C-0.25 3.465 -0.25 2.805 -0.25 2.125 C-3.22 1.63 -3.22 1.63 -6.25 1.125 C-2.80384615 -1.09038462 -2.80384615 -1.09038462 0 0 Z " fill="#DADADD" transform="translate(267.25,78.875)"/>
<path d="M0 0 C1.134375 0.020625 2.26875 0.04125 3.4375 0.0625 C-1.5625 2.5625 -1.5625 2.5625 -6.5625 5.0625 C-4.14811644 0.07277397 -4.14811644 0.07277397 0 0 Z " fill="#F5F5F6" transform="translate(261.5625,77.9375)"/>
</svg>
