<svg version="1.1" id="Layer_1" xmlns="http://www.w3.org/2000/svg" xmlns:xlink="http://www.w3.org/1999/xlink" x="0px" y="0px"
	 width="100%" viewBox="0 0 375 132" enable-background="new 0 0 375 132" xml:space="preserve">
<path fill="#1D1A31" opacity="1.000000" stroke="none" 
	d="
M376.000000,2.000000 
	C376.000000,45.636669 376.000000,89.273338 376.000000,132.955002 
	C251.115875,132.955002 126.231735,132.955002 1.000000,132.955002 
	C1.000000,89.646393 1.000000,46.291851 1.466042,2.468954 
	C126.621391,2.000396 251.310699,2.000198 376.000000,2.000000 
M296.909363,61.397472 
	C297.295776,61.186756 297.682159,60.976044 298.692047,61.306263 
	C299.474915,60.949772 300.892517,60.655724 300.934753,60.226383 
	C301.161255,57.923763 301.414154,55.510582 300.950195,53.283020 
	C300.419159,50.733459 299.778534,46.999317 298.050446,46.183144 
	C295.305145,44.886524 291.618683,45.582649 288.330322,45.435825 
	C288.320496,45.964767 288.310638,46.493710 288.300812,47.022652 
	C291.463593,48.729332 297.701660,44.442471 298.340820,52.129887 
	C295.647003,52.588867 293.008545,52.519714 290.924652,53.560703 
	C289.312103,54.366207 287.167847,56.862282 287.463348,58.065910 
	C287.873444,59.736519 290.171692,61.264744 292.002533,62.144199 
	C293.089050,62.666119 294.830963,61.823650 296.909363,61.397472 
M59.601810,115.077599 
	C60.889446,114.739815 62.178513,114.407402 63.464493,114.063438 
	C85.970329,108.043793 108.506844,102.133682 130.939713,95.853371 
	C133.572083,95.116417 137.538849,92.444244 137.646164,90.491127 
	C138.281311,78.930489 137.959396,67.317276 137.959396,55.242214 
	C122.832832,59.248169 108.295349,63.098122 92.993729,67.150444 
	C92.993729,57.999535 92.993729,49.761608 92.993729,40.947910 
	C76.256264,45.445595 60.179153,49.646641 44.210194,54.224915 
	C42.439507,54.732567 40.112713,57.342743 40.040363,59.061852 
	C39.636002,68.669868 39.845890,78.303741 39.845890,88.791290 
	C45.020844,87.447021 49.454796,86.201675 53.935383,85.156181 
	C58.987919,83.977219 60.858204,85.401947 60.976154,90.474304 
	C61.076851,94.804527 60.941982,99.139870 61.013031,103.471268 
	C61.074608,107.225357 59.340946,109.309746 55.672516,110.135567 
	C51.778873,111.012077 47.862183,111.938370 44.132534,113.320496 
	C42.513962,113.920311 41.338112,115.714806 39.961174,116.966667 
	C41.912239,117.595108 43.989727,118.994446 45.789333,118.699326 
	C50.197632,117.976387 54.477676,116.471382 59.601810,115.077599 
M96.283234,47.493263 
	C96.283188,51.153423 96.443199,54.822582 96.238121,58.471218 
	C96.032600,62.127762 97.607872,62.743309 100.766861,61.882034 
	C114.380501,58.170395 128.002045,54.485027 141.657440,50.931236 
	C144.874039,50.094124 145.797699,48.219700 145.752579,45.145397 
	C145.637848,37.327599 145.741562,29.506798 145.683273,21.687756 
	C145.674118,20.459591 145.275253,19.234329 144.989212,17.629755 
	C143.098175,18.026823 141.655792,18.266621 140.247269,18.635626 
	C130.768768,21.118813 121.303993,23.654385 111.822388,26.125484 
	C96.287193,30.174276 96.283226,30.159042 96.283234,47.493263 
M31.926424,94.379982 
	C31.116051,95.301262 29.646593,96.193726 29.604849,97.148613 
	C29.375397,102.397285 29.495302,107.661232 29.495302,113.735374 
	C38.768559,111.266876 47.230785,109.053352 55.656029,106.707008 
	C56.440453,106.488548 57.542812,105.444168 57.562138,104.756966 
	C57.717941,99.217026 57.649437,93.670776 57.649437,87.597427 
	C48.723793,89.937958 40.712006,92.038857 31.926424,94.379982 
M73.481964,121.667137 
	C74.175171,122.106560 74.995834,123.048935 75.542572,122.910378 
	C84.519157,120.635475 93.470703,118.258423 102.393227,115.779625 
	C103.115578,115.578957 104.033379,114.491096 104.065666,113.779434 
	C104.111221,112.775291 103.371353,110.835793 103.042297,110.851669 
	C99.176872,111.038132 96.124298,106.857246 91.820999,109.045860 
	C89.510269,110.221069 86.307472,109.893761 84.288345,111.337143 
	C80.396942,114.118950 77.060165,117.676628 73.481964,121.667137 
M181.056839,101.636642 
	C182.862701,101.387733 184.668579,101.138824 186.584595,100.874733 
	C186.584595,93.032707 186.584595,84.902771 186.584595,76.772835 
	C185.996140,76.692032 185.407684,76.611237 184.819229,76.530434 
	C184.481140,79.093330 184.143051,81.656219 183.804794,84.220238 
	C174.256271,84.772102 171.008301,87.241295 171.230820,93.765442 
	C171.419815,99.307381 173.980316,101.588264 181.056839,101.636642 
M173.683151,43.286797 
	C170.778534,48.311783 170.319565,53.628052 173.878128,58.228237 
	C178.181519,63.791275 184.483002,62.261135 190.989578,61.884441 
	C190.694519,57.898560 190.435883,54.404552 190.177246,50.910545 
	C189.493210,50.960114 188.809189,51.009686 188.125153,51.059254 
	C188.125153,53.913593 188.125153,56.767933 188.125153,59.531685 
	C179.112152,60.569744 175.003311,58.366337 174.586136,52.104942 
	C174.420532,49.619717 174.803940,45.621727 176.309341,44.787151 
	C180.305115,42.571941 185.048355,41.705021 189.100220,40.426136 
	C186.326218,37.467430 179.684036,38.115158 173.683151,43.286797 
M320.912140,54.382141 
	C320.912140,51.386620 320.971191,48.389591 320.894867,45.396015 
	C320.824036,42.618401 320.608643,39.844463 320.456879,37.068909 
	C319.781250,37.098106 319.105621,37.127308 318.429993,37.156509 
	C318.162598,39.783859 317.895233,42.411213 317.626526,45.051399 
	C315.813599,45.051399 314.298096,44.894978 312.825195,45.079094 
	C307.146240,45.788982 304.056427,50.440655 305.265411,56.309612 
	C306.276123,61.215961 309.973419,63.215698 315.560577,62.029110 
	C317.177032,61.685814 318.873840,61.720974 320.912140,61.551109 
	C320.912140,59.602356 320.912140,57.471111 320.912140,54.382141 
M221.335602,101.370522 
	C221.702347,99.011520 222.069092,96.652519 222.464035,94.112228 
	C227.329010,93.864380 233.122223,95.155357 235.205276,89.115662 
	C235.983109,86.860390 235.573837,83.035515 234.086960,81.382492 
	C230.045837,76.889778 224.548599,78.181473 219.085495,79.259369 
	C219.085495,86.077820 219.040237,92.696434 219.148285,99.312553 
	C219.160492,100.058601 220.038055,100.790527 221.335602,101.370522 
M323.969940,99.404724 
	C324.597626,97.882462 325.950409,96.230415 325.705902,94.864258 
	C325.153015,91.775467 324.651703,87.685287 322.555023,86.143700 
	C320.453705,84.598747 315.829559,84.566360 313.449890,85.901138 
	C311.395447,87.053482 310.031219,91.032288 309.953918,93.805939 
	C309.745483,101.284798 315.863800,103.907448 323.969940,99.404724 
M248.952820,45.942387 
	C247.559097,45.942387 246.165390,45.942387 244.763489,45.942387 
	C243.624390,55.094315 244.068466,59.999111 247.061798,62.759087 
	C247.061798,58.835861 246.812912,55.601128 247.170654,52.434940 
	C247.340164,50.934731 248.317932,48.911629 249.537125,48.256931 
	C253.537643,46.108681 256.566620,48.201847 256.728058,52.947189 
	C256.832123,56.006336 256.747620,59.071903 256.747620,62.134594 
	C257.580444,62.127708 258.413269,62.120827 259.246094,62.113945 
	C259.246094,59.152641 259.261108,56.191246 259.243103,53.230053 
	C259.198639,45.914440 256.923492,44.129536 248.952820,45.942387 
M281.464569,86.016151 
	C277.601044,91.521965 277.921661,97.849373 282.200378,100.538460 
	C285.817200,102.811546 290.872650,102.254128 292.622223,99.389336 
	C284.145172,100.076157 282.991028,99.542274 281.939331,94.025856 
	C285.924316,94.025856 289.830048,94.025856 293.749176,94.025856 
	C293.347443,85.442123 289.778656,83.001831 281.464569,86.016151 
M237.802444,54.800026 
	C238.587830,53.760818 240.067444,52.700478 240.036560,51.686115 
	C239.913101,47.629662 237.499313,45.274456 233.453674,45.051125 
	C228.957550,44.802917 226.354233,47.147083 225.511475,51.557453 
	C224.580688,56.428444 226.411331,60.528858 230.201248,61.887081 
	C233.658783,63.126183 237.420319,62.436367 239.227020,60.017319 
	C234.929276,59.808521 229.622986,61.780201 227.969513,54.801258 
	C231.363449,54.801258 234.166290,54.801258 237.802444,54.800026 
M325.232269,55.980324 
	C327.381195,61.645988 331.172943,63.707085 336.345825,62.021362 
	C340.428009,60.691071 342.519806,55.229485 340.883911,50.172783 
	C339.552429,46.057240 334.749237,43.876072 330.241486,45.472500 
	C325.616241,47.110538 324.916779,50.934544 325.232269,55.980324 
M267.241882,94.915207 
	C267.577118,90.530571 267.260162,86.424484 262.131775,84.882698 
	C257.188324,83.396492 253.125839,85.376060 251.690323,89.813126 
	C250.011841,95.001137 251.992737,99.854103 256.409576,101.374664 
	C261.220428,103.030869 265.170319,100.930611 267.241882,94.915207 
M194.151016,95.148628 
	C198.151443,94.585457 202.151886,94.022278 206.166580,93.457100 
	C206.368423,88.895020 205.079117,85.337044 200.080795,84.629532 
	C195.978470,84.048843 192.981140,85.602180 191.752090,89.886299 
	C190.395248,94.615875 191.661743,99.108513 195.244965,100.807510 
	C198.676620,102.434662 202.089554,102.459717 205.185791,99.928688 
	C201.018982,99.706757 196.618088,100.982071 194.151016,95.148628 
M200.855850,54.791767 
	C203.816986,54.791767 206.778107,54.791767 209.766327,54.791767 
	C210.499130,49.985977 209.185013,46.232616 204.774323,45.482033 
	C202.163361,45.037720 198.137161,46.029083 196.554901,47.901951 
	C193.574539,51.429722 194.717361,58.510452 197.818054,60.692974 
	C201.412857,63.223309 205.224426,62.519653 208.947159,60.867271 
	C206.596680,59.985283 204.116669,60.416061 201.904510,59.832146 
	C200.456589,59.449951 199.396515,57.598312 198.162735,56.404819 
	C198.764633,55.869442 199.366531,55.334068 200.855850,54.791767 
M342.027466,98.769829 
	C343.417816,93.011360 339.259033,92.767426 335.438293,91.843063 
	C334.165070,91.535019 333.177490,90.046181 332.059326,89.097130 
	C333.322876,88.286110 334.494690,87.090324 335.873230,86.761787 
	C337.584076,86.354050 339.465942,86.664078 341.273956,86.664078 
	C340.725708,85.357040 340.098236,84.897629 339.404266,84.749344 
	C334.218689,83.641273 329.768311,85.252144 329.387329,88.631798 
	C328.810486,93.748787 332.886749,93.793365 336.294830,94.422180 
	C336.457123,94.452126 336.656769,94.471413 336.764801,94.573898 
	C337.738068,95.497269 338.694733,96.438126 339.656281,97.373863 
	C338.505951,98.180878 337.442993,99.453758 336.185516,99.689598 
	C334.115295,100.077873 331.919159,99.794899 329.236206,99.794899 
	C333.786316,102.912056 337.246826,102.688828 342.027466,98.769829 
M305.661896,84.740227 
	C299.936646,86.619522 303.132690,79.501205 300.367371,78.790703 
	C298.743958,81.588860 297.322571,84.038788 295.797668,86.667160 
	C296.464203,86.850075 297.614105,87.165627 298.910400,87.521355 
	C298.910400,90.851738 298.637085,94.029839 298.974487,97.141716 
	C299.479401,101.798782 303.874390,103.283974 307.861572,100.346756 
	C301.041290,98.161049 300.579590,97.107353 302.217834,87.150253 
	C303.627899,87.081375 305.093048,87.040688 306.537903,86.847862 
	C306.610046,86.838249 306.505951,85.508217 305.661896,84.740227 
M271.433746,47.405399 
	C273.097412,47.405399 274.761047,47.405399 277.486359,47.405399 
	C272.999481,44.287857 267.985168,44.714413 265.388275,47.591080 
	C262.743958,50.520287 262.815826,57.123470 265.524628,60.118107 
	C268.104492,62.970264 273.079376,63.180176 276.791595,60.221516 
	C272.426880,59.648788 266.887695,61.496227 266.270508,54.853451 
	C265.954651,51.454185 266.639282,48.500271 271.433746,47.405399 
M242.872925,90.056900 
	C245.175217,88.653763 247.477509,87.250626 250.611816,85.340416 
	C246.695206,85.340416 243.440506,85.340416 240.642853,85.340416 
	C240.642853,90.816360 240.642853,96.195671 240.642853,101.574989 
	C241.333389,101.588120 242.023926,101.601250 242.714478,101.614388 
	C242.748123,98.057243 242.781769,94.500099 242.872925,90.056900 
M214.066330,47.128288 
	C214.007706,60.537235 214.007706,60.537235 216.948868,62.593399 
	C216.948868,58.657001 217.094696,55.295742 216.915726,51.951862 
	C216.625504,46.529179 222.336151,49.157368 225.268677,45.209663 
	C220.729294,45.638271 217.446930,45.948196 214.066330,47.128288 
M273.170868,84.897041 
	C272.761658,85.306633 272.023132,85.692947 271.992279,86.129288 
	C271.475464,93.440224 271.047028,100.757408 270.598969,108.073204 
	C272.123108,105.937996 273.849457,103.327354 274.082550,100.589592 
	C274.514313,95.517647 274.072876,90.371376 273.170868,84.897041 
M282.947479,58.269321 
	C282.948059,46.779556 282.948059,46.779556 280.412842,45.215443 
	C280.412842,50.931370 280.412842,56.424526 280.412842,61.917679 
	C280.823212,62.043549 281.233582,62.169422 281.643951,62.295296 
	C282.078094,61.265995 282.512268,60.236698 282.947479,58.269321 
M345.820709,47.243252 
	C345.902954,52.202713 345.985199,57.162178 346.067474,62.121639 
	C346.673645,62.084644 347.279816,62.047649 347.885986,62.010651 
	C348.123688,57.376114 348.456665,52.741959 348.475342,48.106541 
	C348.477600,47.543144 346.787720,46.972931 345.820709,47.243252 
z"/>
<path fill="#1E1E1E" opacity="1.000000" stroke="none" 
	d="
M376.000000,1.500000 
	C251.310699,2.000198 126.621391,2.000396 1.466042,2.000297 
	C2.333333,1.666667 3.666456,1.042671 5.000030,1.041705 
	C70.666656,0.994097 136.333328,1.000000 202.000000,1.000000 
	C260.000000,1.000000 318.000000,1.000000 376.000000,1.500000 
z"/>
<path fill="#685BCB" opacity="1.000000" stroke="none" 
	d="
M59.205570,115.179337 
	C54.477676,116.471382 50.197632,117.976387 45.789333,118.699326 
	C43.989727,118.994446 41.912239,117.595108 39.961174,116.966667 
	C41.338112,115.714806 42.513962,113.920311 44.132534,113.320496 
	C47.862183,111.938370 51.778873,111.012077 55.672516,110.135567 
	C59.340946,109.309746 61.074608,107.225357 61.013031,103.471268 
	C60.941982,99.139870 61.076851,94.804527 60.976154,90.474304 
	C60.858204,85.401947 58.987919,83.977219 53.935383,85.156181 
	C49.454796,86.201675 45.020844,87.447021 39.845890,88.791290 
	C39.845890,78.303741 39.636002,68.669868 40.040363,59.061852 
	C40.112713,57.342743 42.439507,54.732567 44.210194,54.224915 
	C60.179153,49.646641 76.256264,45.445595 92.993729,40.947910 
	C92.993729,49.761608 92.993729,57.999535 92.993729,67.150444 
	C108.295349,63.098122 122.832832,59.248169 137.959396,55.242214 
	C137.959396,67.317276 138.281311,78.930489 137.646164,90.491127 
	C137.538849,92.444244 133.572083,95.116417 130.939713,95.853371 
	C108.506844,102.133682 85.970329,108.043793 63.464493,114.063438 
	C62.178513,114.407402 60.889446,114.739815 59.205570,115.179337 
M60.841522,80.132774 
	C61.826065,80.949623 62.839199,82.476357 63.789295,82.438080 
	C65.877487,82.353966 68.053642,81.734879 69.963554,80.841652 
	C71.380135,80.179146 73.281914,78.876709 73.482704,77.621758 
	C73.987015,74.469711 73.649414,71.182953 73.649414,67.949585 
	C62.135880,68.181465 60.826012,69.402992 60.841522,80.132774 
z"/>
<path fill="#FABF66" opacity="1.000000" stroke="none" 
	d="
M96.283249,46.996487 
	C96.283226,30.159042 96.287193,30.174276 111.822388,26.125484 
	C121.303993,23.654385 130.768768,21.118813 140.247269,18.635626 
	C141.655792,18.266621 143.098175,18.026823 144.989212,17.629755 
	C145.275253,19.234329 145.674118,20.459591 145.683273,21.687756 
	C145.741562,29.506798 145.637848,37.327599 145.752579,45.145397 
	C145.797699,48.219700 144.874039,50.094124 141.657440,50.931236 
	C128.002045,54.485027 114.380501,58.170395 100.766861,61.882034 
	C97.607872,62.743309 96.032600,62.127762 96.238121,58.471218 
	C96.443199,54.822582 96.283188,51.153423 96.283249,46.996487 
z"/>
<path fill="#F6BC65" opacity="1.000000" stroke="none" 
	d="
M32.313320,94.259865 
	C40.712006,92.038857 48.723793,89.937958 57.649437,87.597427 
	C57.649437,93.670776 57.717941,99.217026 57.562138,104.756966 
	C57.542812,105.444168 56.440453,106.488548 55.656029,106.707008 
	C47.230785,109.053352 38.768559,111.266876 29.495302,113.735374 
	C29.495302,107.661232 29.375397,102.397285 29.604849,97.148613 
	C29.646593,96.193726 31.116051,95.301262 32.313320,94.259865 
z"/>
<path fill="#F4F3F5" opacity="1.000000" stroke="none" 
	d="
M73.487686,121.289864 
	C77.060165,117.676628 80.396942,114.118950 84.288345,111.337143 
	C86.307472,109.893761 89.510269,110.221069 91.820999,109.045860 
	C96.124298,106.857246 99.176872,111.038132 103.042297,110.851669 
	C103.371353,110.835793 104.111221,112.775291 104.065666,113.779434 
	C104.033379,114.491096 103.115578,115.578957 102.393227,115.779625 
	C93.470703,118.258423 84.519157,120.635475 75.542572,122.910378 
	C74.995834,123.048935 74.175171,122.106560 73.487686,121.289864 
z"/>
<path fill="#DFDFE2" opacity="1.000000" stroke="none" 
	d="
M180.663544,101.727188 
	C173.980316,101.588264 171.419815,99.307381 171.230820,93.765442 
	C171.008301,87.241295 174.256271,84.772102 183.804794,84.220238 
	C184.143051,81.656219 184.481140,79.093330 184.819229,76.530434 
	C185.407684,76.611237 185.996140,76.692032 186.584595,76.772835 
	C186.584595,84.902771 186.584595,93.032707 186.584595,100.874733 
	C184.668579,101.138824 182.862701,101.387733 180.663544,101.727188 
M181.309891,99.146828 
	C187.010406,96.251167 182.930084,91.309822 184.302841,87.493561 
	C177.373520,86.244087 174.664322,87.610199 174.107468,92.267982 
	C173.561600,96.833870 175.406677,98.914162 181.309891,99.146828 
z"/>
<path fill="#E6E6E8" opacity="1.000000" stroke="none" 
	d="
M173.920761,42.991203 
	C179.684036,38.115158 186.326218,37.467430 189.100220,40.426136 
	C185.048355,41.705021 180.305115,42.571941 176.309341,44.787151 
	C174.803940,45.621727 174.420532,49.619717 174.586136,52.104942 
	C175.003311,58.366337 179.112152,60.569744 188.125153,59.531685 
	C188.125153,56.767933 188.125153,53.913593 188.125153,51.059254 
	C188.809189,51.009686 189.493210,50.960114 190.177246,50.910545 
	C190.435883,54.404552 190.694519,57.898560 190.989578,61.884441 
	C184.483002,62.261135 178.181519,63.791275 173.878128,58.228237 
	C170.319565,53.628052 170.778534,48.311783 173.920761,42.991203 
z"/>
<path fill="#E3E2E5" opacity="1.000000" stroke="none" 
	d="
M320.912140,54.861004 
	C320.912140,57.471111 320.912140,59.602356 320.912140,61.551109 
	C318.873840,61.720974 317.177032,61.685814 315.560577,62.029110 
	C309.973419,63.215698 306.276123,61.215961 305.265411,56.309612 
	C304.056427,50.440655 307.146240,45.788982 312.825195,45.079094 
	C314.298096,44.894978 315.813599,45.051399 317.626526,45.051399 
	C317.895233,42.411213 318.162598,39.783859 318.429993,37.156509 
	C319.105621,37.127308 319.781250,37.098106 320.456879,37.068909 
	C320.608643,39.844463 320.824036,42.618401 320.894867,45.396015 
	C320.971191,48.389591 320.912140,51.386620 320.912140,54.861004 
M315.194702,59.863636 
	C320.783691,56.844822 316.735748,51.913528 318.137207,48.084511 
	C311.764282,46.590160 308.640900,48.050858 308.027527,52.406612 
	C307.306610,57.526451 309.091858,59.672016 315.194702,59.863636 
z"/>
<path fill="#E0DFE2" opacity="1.000000" stroke="none" 
	d="
M220.924973,101.449760 
	C220.038055,100.790527 219.160492,100.058601 219.148285,99.312553 
	C219.040237,92.696434 219.085495,86.077820 219.085495,79.259369 
	C224.548599,78.181473 230.045837,76.889778 234.086960,81.382492 
	C235.573837,83.035515 235.983109,86.860390 235.205276,89.115662 
	C233.122223,95.155357 227.329010,93.864380 222.464035,94.112228 
	C222.069092,96.652519 221.702347,99.011520 220.924973,101.449760 
M227.013702,91.892593 
	C231.425751,91.482208 233.795090,89.297829 232.920670,84.670990 
	C232.197876,80.846390 228.230164,79.741249 222.343903,81.496643 
	C222.343903,84.935638 222.343903,88.332024 222.343903,91.932686 
	C223.843567,91.932686 224.998215,91.932686 227.013702,91.892593 
z"/>
<path fill="#E4E3E6" opacity="1.000000" stroke="none" 
	d="
M323.695343,99.686279 
	C315.863800,103.907448 309.745483,101.284798 309.953918,93.805939 
	C310.031219,91.032288 311.395447,87.053482 313.449890,85.901138 
	C315.829559,84.566360 320.453705,84.598747 322.555023,86.143700 
	C324.651703,87.685287 325.153015,91.775467 325.705902,94.864258 
	C325.950409,96.230415 324.597626,97.882462 323.695343,99.686279 
M313.539520,97.782463 
	C316.110352,100.169853 319.544922,100.791519 321.337799,98.013680 
	C322.769043,95.796120 322.676086,92.058868 322.022949,89.287643 
	C321.749817,88.128746 318.218567,86.982567 316.272217,87.136887 
	C312.679291,87.421730 311.719666,90.973061 313.539520,97.782463 
z"/>
<path fill="#E2E2E5" opacity="1.000000" stroke="none" 
	d="
M249.305466,45.815109 
	C256.923492,44.129536 259.198639,45.914440 259.243103,53.230053 
	C259.261108,56.191246 259.246094,59.152641 259.246094,62.113945 
	C258.413269,62.120827 257.580444,62.127708 256.747620,62.134594 
	C256.747620,59.071903 256.832123,56.006336 256.728058,52.947189 
	C256.566620,48.201847 253.537643,46.108681 249.537125,48.256931 
	C248.317932,48.911629 247.340164,50.934731 247.170654,52.434940 
	C246.812912,55.601128 247.061798,58.835861 247.061798,62.759087 
	C244.068466,59.999111 243.624390,55.094315 244.763489,45.942387 
	C246.165390,45.942387 247.559097,45.942387 249.305466,45.815109 
z"/>
<path fill="#E2E2E5" opacity="1.000000" stroke="none" 
	d="
M281.804169,85.829315 
	C289.778656,83.001831 293.347443,85.442123 293.749176,94.025856 
	C289.830048,94.025856 285.924316,94.025856 281.939331,94.025856 
	C282.991028,99.542274 284.145172,100.076157 292.622223,99.389336 
	C290.872650,102.254128 285.817200,102.811546 282.200378,100.538460 
	C277.921661,97.849373 277.601044,91.521965 281.804169,85.829315 
M290.218536,88.317001 
	C288.146240,87.861839 285.956970,86.807823 284.046478,87.181038 
	C282.939301,87.397331 282.280701,89.909828 281.000000,92.111336 
	C284.439087,92.111336 286.622772,92.407028 288.649445,91.971695 
	C289.508942,91.787071 290.038910,90.068291 290.218536,88.317001 
z"/>
<path fill="#E0E0E3" opacity="1.000000" stroke="none" 
	d="
M237.385773,54.800644 
	C234.166290,54.801258 231.363449,54.801258 227.969513,54.801258 
	C229.622986,61.780201 234.929276,59.808521 239.227020,60.017319 
	C237.420319,62.436367 233.658783,63.126183 230.201248,61.887081 
	C226.411331,60.528858 224.580688,56.428444 225.511475,51.557453 
	C226.354233,47.147083 228.957550,44.802917 233.453674,45.051125 
	C237.499313,45.274456 239.913101,47.629662 240.036560,51.686115 
	C240.067444,52.700478 238.587830,53.760818 237.385773,54.800644 
M228.434372,50.177151 
	C228.881302,51.079895 229.250931,52.704994 229.788300,52.762497 
	C232.351837,53.036789 234.960922,52.885372 239.060974,52.885372 
	C237.125092,50.368004 236.130692,47.805614 234.683151,47.517166 
	C232.914749,47.164780 230.766113,48.720509 228.434372,50.177151 
z"/>
<path fill="#E6E5E8" opacity="1.000000" stroke="none" 
	d="
M325.168427,55.578590 
	C324.916779,50.934544 325.616241,47.110538 330.241486,45.472500 
	C334.749237,43.876072 339.552429,46.057240 340.883911,50.172783 
	C342.519806,55.229485 340.428009,60.691071 336.345825,62.021362 
	C331.172943,63.707085 327.381195,61.645988 325.168427,55.578590 
M337.123108,48.801098 
	C336.113800,48.295765 335.133759,47.435120 334.089874,47.349022 
	C330.355103,47.040977 328.063904,48.729473 327.944397,52.668579 
	C327.840851,56.080402 327.901947,59.510765 332.459869,60.078751 
	C336.835602,60.624031 338.425781,58.005531 338.558990,54.226940 
	C338.615021,52.637180 337.992004,51.023491 337.123108,48.801098 
z"/>
<path fill="#E6E6E8" opacity="1.000000" stroke="none" 
	d="
M267.190460,95.292358 
	C265.170319,100.930611 261.220428,103.030869 256.409576,101.374664 
	C251.992737,99.854103 250.011841,95.001137 251.690323,89.813126 
	C253.125839,85.376060 257.188324,83.396492 262.131775,84.882698 
	C267.260162,86.424484 267.577118,90.530571 267.190460,95.292358 
M254.067978,95.012665 
	C255.018753,99.045021 257.642700,100.615768 261.412842,99.183296 
	C265.339813,97.691254 265.073639,94.126457 264.440063,90.796501 
	C263.777557,87.314529 261.246155,86.383408 258.107483,86.927063 
	C253.883331,87.658722 254.007416,91.006340 254.067978,95.012665 
z"/>
<path fill="#E4E3E6" opacity="1.000000" stroke="none" 
	d="
M194.230423,95.568253 
	C196.618088,100.982071 201.018982,99.706757 205.185791,99.928688 
	C202.089554,102.459717 198.676620,102.434662 195.244965,100.807510 
	C191.661743,99.108513 190.395248,94.615875 191.752090,89.886299 
	C192.981140,85.602180 195.978470,84.048843 200.080795,84.629532 
	C205.079117,85.337044 206.368423,88.895020 206.166580,93.457100 
	C202.151886,94.022278 198.151443,94.585457 194.230423,95.568253 
M196.436768,87.014099 
	C195.528015,88.438713 194.619263,89.863335 193.331848,91.881577 
	C197.332977,91.881577 200.396255,91.881577 203.788605,91.881577 
	C203.247421,87.684448 201.381241,85.721161 196.436768,87.014099 
z"/>
<path fill="#E3E3E6" opacity="1.000000" stroke="none" 
	d="
M200.412140,54.795231 
	C199.366531,55.334068 198.764633,55.869442 198.162735,56.404823 
	C199.396515,57.598312 200.456589,59.449951 201.904510,59.832146 
	C204.116669,60.416061 206.596680,59.985283 208.947159,60.867271 
	C205.224426,62.519653 201.412857,63.223309 197.818054,60.692974 
	C194.717361,58.510452 193.574539,51.429722 196.554901,47.901951 
	C198.137161,46.029083 202.163361,45.037720 204.774323,45.482033 
	C209.185013,46.232616 210.499130,49.985977 209.766327,54.791767 
	C206.778107,54.791767 203.816986,54.791767 200.412140,54.795231 
M204.255981,47.147068 
	C200.189880,46.673920 197.842331,48.106037 198.122025,52.720970 
	C201.177505,52.720970 204.118195,52.720970 208.204346,52.720970 
	C206.894684,50.546673 205.962418,48.998955 204.255981,47.147068 
z"/>
<path fill="#E8E8EA" opacity="1.000000" stroke="none" 
	d="
M296.278198,61.594643 
	C294.830963,61.823650 293.089050,62.666119 292.002533,62.144199 
	C290.171692,61.264744 287.873444,59.736519 287.463348,58.065910 
	C287.167847,56.862282 289.312103,54.366207 290.924652,53.560703 
	C293.008545,52.519714 295.647003,52.588867 298.340820,52.129887 
	C297.701660,44.442471 291.463593,48.729332 288.300812,47.022652 
	C288.310638,46.493710 288.320496,45.964767 288.330322,45.435825 
	C291.618683,45.582649 295.305145,44.886524 298.050446,46.183144 
	C299.778534,46.999317 300.419159,50.733459 300.950195,53.283020 
	C301.414154,55.510582 301.161255,57.923763 300.934753,60.226383 
	C300.892517,60.655724 299.474915,60.949772 298.365723,60.738266 
	C298.023682,59.773434 298.007965,59.376606 298.114319,58.569809 
	C298.236420,56.915432 298.236420,55.671021 298.236420,54.129593 
	C296.111328,54.433014 294.382202,54.372967 292.936340,54.983631 
	C291.783234,55.470638 290.975494,56.775345 290.014435,57.717087 
	C291.185272,58.605480 292.274658,59.652763 293.562378,60.313236 
	C294.178864,60.629444 295.171173,60.212856 296.047546,60.498077 
	C296.160645,61.110210 296.219421,61.352428 296.278198,61.594643 
z"/>
<path fill="#DDDDE0" opacity="1.000000" stroke="none" 
	d="
M341.846191,99.093140 
	C337.246826,102.688828 333.786316,102.912056 329.236206,99.794899 
	C331.919159,99.794899 334.115295,100.077873 336.185516,99.689598 
	C337.442993,99.453758 338.505951,98.180878 339.656281,97.373856 
	C338.694733,96.438126 337.738068,95.497269 336.764801,94.573898 
	C336.656769,94.471413 336.457123,94.452126 336.294830,94.422180 
	C332.886749,93.793365 328.810486,93.748787 329.387329,88.631798 
	C329.768311,85.252144 334.218689,83.641273 339.404266,84.749344 
	C340.098236,84.897629 340.725708,85.357040 341.273956,86.664078 
	C339.465942,86.664078 337.584076,86.354050 335.873230,86.761787 
	C334.494690,87.090324 333.322876,88.286110 332.059326,89.097137 
	C333.177490,90.046181 334.165070,91.535019 335.438293,91.843063 
	C339.259033,92.767426 343.417816,93.011360 341.846191,99.093140 
z"/>
<path fill="#DCDCDF" opacity="1.000000" stroke="none" 
	d="
M306.072906,84.766617 
	C306.505951,85.508217 306.610046,86.838249 306.537903,86.847862 
	C305.093048,87.040688 303.627899,87.081375 302.217834,87.150253 
	C300.579590,97.107353 301.041290,98.161049 307.861572,100.346756 
	C303.874390,103.283974 299.479401,101.798782 298.974487,97.141716 
	C298.637085,94.029839 298.910400,90.851738 298.910400,87.521355 
	C297.614105,87.165627 296.464203,86.850075 295.797668,86.667160 
	C297.322571,84.038788 298.743958,81.588860 300.367371,78.790703 
	C303.132690,79.501205 299.936646,86.619522 306.072906,84.766617 
z"/>
<path fill="#E3E3E5" opacity="1.000000" stroke="none" 
	d="
M271.006409,47.471989 
	C266.639282,48.500271 265.954651,51.454185 266.270508,54.853451 
	C266.887695,61.496227 272.426880,59.648788 276.791595,60.221516 
	C273.079376,63.180176 268.104492,62.970264 265.524628,60.118107 
	C262.815826,57.123470 262.743958,50.520287 265.388275,47.591080 
	C267.985168,44.714413 272.999481,44.287857 277.486359,47.405399 
	C274.761047,47.405399 273.097412,47.405399 271.006409,47.471989 
z"/>
<path fill="#DFDFE2" opacity="1.000000" stroke="none" 
	d="
M242.844177,90.499924 
	C242.781769,94.500099 242.748123,98.057243 242.714478,101.614388 
	C242.023926,101.601250 241.333389,101.588120 240.642853,101.574989 
	C240.642853,96.195671 240.642853,90.816360 240.642853,85.340416 
	C243.440506,85.340416 246.695206,85.340416 250.611816,85.340416 
	C247.477509,87.250626 245.175217,88.653763 242.844177,90.499924 
z"/>
<path fill="#D7D7DA" opacity="1.000000" stroke="none" 
	d="
M214.115448,46.693203 
	C217.446930,45.948196 220.729294,45.638271 225.268677,45.209663 
	C222.336151,49.157368 216.625504,46.529179 216.915726,51.951862 
	C217.094696,55.295742 216.948868,58.657001 216.948868,62.593399 
	C214.007706,60.537235 214.007706,60.537235 214.115448,46.693203 
z"/>
<path fill="#F7F7F7" opacity="1.000000" stroke="none" 
	d="
M273.582977,85.076553 
	C274.072876,90.371376 274.514313,95.517647 274.082550,100.589592 
	C273.849457,103.327354 272.123108,105.937996 270.598969,108.073204 
	C271.047028,100.757408 271.475464,93.440224 271.992279,86.129288 
	C272.023132,85.692947 272.761658,85.306633 273.582977,85.076553 
z"/>
<path fill="#D7D6DA" opacity="1.000000" stroke="none" 
	d="
M282.946960,58.738358 
	C282.512268,60.236698 282.078094,61.265995 281.643951,62.295296 
	C281.233582,62.169422 280.823212,62.043549 280.412842,61.917679 
	C280.412842,56.424526 280.412842,50.931370 280.412842,45.215443 
	C282.948059,46.779556 282.948059,46.779556 282.946960,58.738358 
z"/>
<path fill="#F7F7F8" opacity="1.000000" stroke="none" 
	d="
M345.851379,46.824566 
	C346.787720,46.972931 348.477600,47.543144 348.475342,48.106541 
	C348.456665,52.741959 348.123688,57.376114 347.885986,62.010651 
	C347.279816,62.047649 346.673645,62.084644 346.067474,62.121639 
	C345.985199,57.162178 345.902954,52.202713 345.851379,46.824566 
z"/>
<path fill="#DCDCDF" opacity="1.000000" stroke="none" 
	d="
M296.593781,61.496056 
	C296.219421,61.352428 296.160645,61.110210 296.278961,60.321648 
	C296.968140,59.510124 297.480164,59.244946 297.992218,58.979771 
	C298.007965,59.376606 298.023682,59.773434 298.054016,60.467796 
	C297.682159,60.976044 297.295776,61.186756 296.593781,61.496056 
z"/>
<path fill="#201D39" opacity="1.000000" stroke="none" 
	d="
M60.836426,79.681984 
	C60.826012,69.402992 62.135880,68.181465 73.649414,67.949585 
	C73.649414,71.182953 73.987015,74.469711 73.482704,77.621758 
	C73.281914,78.876709 71.380135,80.179146 69.963554,80.841652 
	C68.053642,81.734879 65.877487,82.353966 63.789295,82.438080 
	C62.839199,82.476357 61.826065,80.949623 60.836426,79.681984 
z"/>
<path fill="#211E35" opacity="1.000000" stroke="none" 
	d="
M180.892273,99.296829 
	C175.406677,98.914162 173.561600,96.833870 174.107468,92.267982 
	C174.664322,87.610199 177.373520,86.244087 184.302841,87.493561 
	C182.930084,91.309822 187.010406,96.251167 180.892273,99.296829 
z"/>
<path fill="#232036" opacity="1.000000" stroke="none" 
	d="
M314.776123,59.938881 
	C309.091858,59.672016 307.306610,57.526451 308.027527,52.406612 
	C308.640900,48.050858 311.764282,46.590160 318.137207,48.084511 
	C316.735748,51.913528 320.783691,56.844822 314.776123,59.938881 
z"/>
<path fill="#1F1C32" opacity="1.000000" stroke="none" 
	d="
M226.583282,91.912643 
	C224.998215,91.932686 223.843567,91.932686 222.343903,91.932686 
	C222.343903,88.332024 222.343903,84.935638 222.343903,81.496643 
	C228.230164,79.741249 232.197876,80.846390 232.920670,84.670990 
	C233.795090,89.297829 231.425751,91.482208 226.583282,91.912643 
z"/>
<path fill="#242138" opacity="1.000000" stroke="none" 
	d="
M313.322876,97.388168 
	C311.719666,90.973061 312.679291,87.421730 316.272217,87.136887 
	C318.218567,86.982567 321.749817,88.128746 322.022949,89.287643 
	C322.676086,92.058868 322.769043,95.796120 321.337799,98.013680 
	C319.544922,100.791519 316.110352,100.169853 313.322876,97.388168 
z"/>
<path fill="#27243A" opacity="1.000000" stroke="none" 
	d="
M290.468567,88.681885 
	C290.038910,90.068291 289.508942,91.787071 288.649445,91.971695 
	C286.622772,92.407028 284.439087,92.111336 281.000000,92.111336 
	C282.280701,89.909828 282.939301,87.397331 284.046478,87.181038 
	C285.956970,86.807823 288.146240,87.861839 290.468567,88.681885 
z"/>
<path fill="#2E2C41" opacity="1.000000" stroke="none" 
	d="
M228.608139,49.814117 
	C230.766113,48.720509 232.914749,47.164780 234.683151,47.517166 
	C236.130692,47.805614 237.125092,50.368004 239.060974,52.885372 
	C234.960922,52.885372 232.351837,53.036789 229.788300,52.762497 
	C229.250931,52.704994 228.881302,51.079895 228.608139,49.814117 
z"/>
<path fill="#242137" opacity="1.000000" stroke="none" 
	d="
M337.400391,49.110886 
	C337.992004,51.023491 338.615021,52.637180 338.558990,54.226940 
	C338.425781,58.005531 336.835602,60.624031 332.459869,60.078751 
	C327.901947,59.510765 327.840851,56.080402 327.944397,52.668579 
	C328.063904,48.729473 330.355103,47.040977 334.089874,47.349022 
	C335.133759,47.435120 336.113800,48.295765 337.400391,49.110886 
z"/>
<path fill="#252238" opacity="1.000000" stroke="none" 
	d="
M254.033966,94.609024 
	C254.007416,91.006340 253.883331,87.658722 258.107483,86.927063 
	C261.246155,86.383408 263.777557,87.314529 264.440063,90.796501 
	C265.073639,94.126457 265.339813,97.691254 261.412842,99.183296 
	C257.642700,100.615768 255.018753,99.045021 254.033966,94.609024 
z"/>
<path fill="#29263C" opacity="1.000000" stroke="none" 
	d="
M196.792328,86.884926 
	C201.381241,85.721161 203.247421,87.684448 203.788605,91.881577 
	C200.396255,91.881577 197.332977,91.881577 193.331848,91.881577 
	C194.619263,89.863335 195.528015,88.438713 196.792328,86.884926 
z"/>
<path fill="#2B293E" opacity="1.000000" stroke="none" 
	d="
M204.643066,47.299149 
	C205.962418,48.998955 206.894684,50.546673 208.204346,52.720970 
	C204.118195,52.720970 201.177505,52.720970 198.122025,52.720970 
	C197.842331,48.106037 200.189880,46.673920 204.643066,47.299149 
z"/>
<path fill="#252238" opacity="1.000000" stroke="none" 
	d="
M298.114319,58.569805 
	C297.480164,59.244946 296.968140,59.510124 296.224670,59.951733 
	C295.171173,60.212856 294.178864,60.629444 293.562378,60.313236 
	C292.274658,59.652763 291.185272,58.605480 290.014435,57.717087 
	C290.975494,56.775345 291.783234,55.470638 292.936340,54.983631 
	C294.382202,54.372967 296.111328,54.433014 298.236420,54.129593 
	C298.236420,55.671021 298.236420,56.915432 298.114319,58.569805 
z"/>
</svg>