<svg version="1.1" id="Layer_1" xmlns="http://www.w3.org/2000/svg" xmlns:xlink="http://www.w3.org/1999/xlink" x="0px" y="0px"
	 width="100%" viewBox="0 0 73 78" enable-background="new 0 0 73 78" xml:space="preserve">
<path fill="#000000" opacity="1.000000" stroke="none" 
	d="
M48.000011,79.000000 
	C32.000008,79.000000 16.500008,79.000000 1.000006,79.000000 
	C1.000004,53.000004 1.000004,27.000006 1.000002,1.000006 
	C25.333330,1.000004 49.666660,1.000004 74.000000,1.000002 
	C74.000000,26.999998 74.000000,52.999996 74.000000,79.000000 
	C65.500008,79.000000 57.000011,79.000000 48.000011,79.000000 
M29.627884,15.000340 
	C28.179363,15.000340 26.730844,15.000340 24.917080,15.000340 
	C24.917080,17.543261 24.917080,19.621468 24.917080,22.233063 
	C22.041668,22.233063 19.530277,22.233063 18.066082,22.233063 
	C18.403135,26.544062 18.872547,30.352009 18.960363,34.168732 
	C19.103985,40.411106 18.999199,46.659199 18.999199,52.675087 
	C29.073261,52.675087 38.470680,52.675087 48.058659,52.675087 
	C48.058659,43.396145 48.058659,34.440895 48.058659,25.930702 
	C49.634396,24.950214 50.925468,24.146856 52.216541,23.343496 
	C51.979790,22.851543 51.743034,22.359589 51.506279,21.867634 
	C48.742844,21.867634 45.979404,21.867634 42.871201,21.867634 
	C42.871201,19.415783 42.871201,17.344341 42.871201,15.000334 
	C38.530243,15.000334 34.564594,15.000334 29.627884,15.000340 
z"/>
<path fill="#FFFFFF" opacity="1.000000" stroke="none" 
	d="
M30.113417,15.000337 
	C34.564594,15.000334 38.530243,15.000334 42.871201,15.000334 
	C42.871201,17.344341 42.871201,19.415783 42.871201,21.867634 
	C45.979404,21.867634 48.742844,21.867634 51.506279,21.867634 
	C51.743034,22.359589 51.979790,22.851543 52.216541,23.343496 
	C50.925468,24.146856 49.634396,24.950214 48.058659,25.930702 
	C48.058659,34.440895 48.058659,43.396145 48.058659,52.675087 
	C38.470680,52.675087 29.073261,52.675087 18.999199,52.675087 
	C18.999199,46.659199 19.103985,40.411106 18.960363,34.168732 
	C18.872547,30.352009 18.403135,26.544062 18.066082,22.233063 
	C19.530277,22.233063 22.041668,22.233063 24.917080,22.233063 
	C24.917080,19.621468 24.917080,17.543261 24.917080,15.000340 
	C26.730844,15.000340 28.179363,15.000340 30.113417,15.000337 
M29.621384,25.000013 
	C27.180294,25.000013 24.739202,25.000013 22.999613,25.000013 
	C22.999613,31.877304 23.003515,38.325401 22.998030,44.773491 
	C22.995117,48.196484 24.666731,49.980236 28.115549,49.995655 
	C32.110325,50.013515 36.164135,50.398422 40.073696,49.820942 
	C41.861553,49.556862 44.674347,47.463772 44.776039,46.039776 
	C45.268440,39.144768 44.998119,32.195286 44.998119,25.000051 
	C39.851055,25.000051 35.219311,25.000051 29.621384,25.000013 
M29.443993,19.941761 
	C29.438147,20.622704 29.432299,21.303648 29.426451,21.984591 
	C32.594345,21.984591 35.762238,21.984591 39.254803,21.984591 
	C37.093910,17.496155 34.235989,16.863331 29.443993,19.941761 
z"/>
<path fill="#000000" opacity="1.000000" stroke="none" 
	d="
M30.104475,25.000032 
	C35.219311,25.000051 39.851055,25.000051 44.998119,25.000051 
	C44.998119,32.195286 45.268440,39.144768 44.776039,46.039776 
	C44.674347,47.463772 41.861553,49.556862 40.073696,49.820942 
	C36.164135,50.398422 32.110325,50.013515 28.115549,49.995655 
	C24.666731,49.980236 22.995117,48.196484 22.998030,44.773491 
	C23.003515,38.325401 22.999613,31.877304 22.999613,25.000013 
	C24.739202,25.000013 27.180294,25.000013 30.104475,25.000032 
z"/>
<path fill="#000000" opacity="1.000000" stroke="none" 
	d="
M29.704857,19.594284 
	C34.235989,16.863331 37.093910,17.496155 39.254803,21.984591 
	C35.762238,21.984591 32.594345,21.984591 29.426451,21.984591 
	C29.432299,21.303648 29.438147,20.622704 29.704857,19.594284 
z"/>
</svg>